<?xml version='1.0' encoding='utf-8'?>
<mlt LC_NUMERIC="C" producer="main_bin" version="7.12.0" root="/NTFS-SSD/Code/4-1/6/Project">
 <profile frame_rate_num="25" sample_aspect_num="1" display_aspect_den="72" colorspace="709" progressive="1" description="bogm (copy)" display_aspect_num="72" frame_rate_den="1" width="720" height="720" sample_aspect_den="1"/>
 <producer id="producer0" in="00:00:00.000" out="00:03:59.480">
  <property name="length">5988</property>
  <property name="eof">pause</property>
  <property name="resource">2024-03-11 12-48-00.mkv</property>
  <property name="audio_index">1</property>
  <property name="video_index">0</property>
  <property name="mute_on_pause">0</property>
  <property name="mlt_service">avformat-novalidate</property>
  <property name="meta.media.nb_streams">2</property>
  <property name="meta.media.0.stream.type">video</property>
  <property name="meta.media.0.stream.frame_rate">30</property>
  <property name="meta.media.0.stream.sample_aspect_ratio">0</property>
  <property name="meta.media.0.codec.width">1920</property>
  <property name="meta.media.0.codec.height">1080</property>
  <property name="meta.media.0.codec.rotate">0</property>
  <property name="meta.media.0.codec.pix_fmt">yuv420p</property>
  <property name="meta.media.0.codec.sample_aspect_ratio">1</property>
  <property name="meta.media.0.codec.colorspace">709</property>
  <property name="meta.media.0.codec.color_trc">1</property>
  <property name="meta.media.0.codec.name">h264</property>
  <property name="meta.media.0.codec.long_name">H.264 / AVC / MPEG-4 AVC / MPEG-4 part 10</property>
  <property name="meta.media.0.codec.bit_rate">0</property>
  <property name="meta.attr.0.stream.DURATION.markup">00:03:59.500000000</property>
  <property name="meta.media.1.stream.type">audio</property>
  <property name="meta.media.1.codec.sample_fmt">fltp</property>
  <property name="meta.media.1.codec.sample_rate">48000</property>
  <property name="meta.media.1.codec.channels">2</property>
  <property name="meta.media.1.codec.name">aac</property>
  <property name="meta.media.1.codec.long_name">AAC (Advanced Audio Coding)</property>
  <property name="meta.media.1.codec.bit_rate">0</property>
  <property name="meta.attr.1.stream.title.markup">simple_aac_recording0</property>
  <property name="meta.attr.1.stream.DURATION.markup">00:03:59.402000000</property>
  <property name="meta.attr.ENCODER.markup">Lavf60.3.100</property>
  <property name="seekable">1</property>
  <property name="meta.media.sample_aspect_num">1</property>
  <property name="meta.media.sample_aspect_den">1</property>
  <property name="aspect_ratio">1</property>
  <property name="format">3</property>
  <property name="kdenlive:clipname"/>
  <property name="meta.media.frame_rate_num">30</property>
  <property name="meta.media.frame_rate_den">1</property>
  <property name="meta.media.colorspace">709</property>
  <property name="meta.media.color_trc">1</property>
  <property name="meta.media.has_b_frames">2</property>
  <property name="meta.media.width">1920</property>
  <property name="meta.media.height">1080</property>
  <property name="meta.media.color_range">mpeg</property>
  <property name="meta.media.top_field_first">0</property>
  <property name="meta.media.progressive">1</property>
  <property name="kdenlive:clip_type">0</property>
  <property name="kdenlive:folderid">-1</property>
  <property name="kdenlive:id">2</property>
  <property name="kdenlive:file_size">12005196</property>
  <property name="kdenlive:file_hash">b3982d2c15e5e0b9e46f3d2ed4356907</property>
  <property name="kdenlive:audio_max1">118</property>
 </producer>
 <producer id="producer1" in="00:00:00.000" out="00:00:38.440">
  <property name="length">962</property>
  <property name="eof">pause</property>
  <property name="resource">2024-03-11 16-21-59.mkv</property>
  <property name="audio_index">1</property>
  <property name="video_index">0</property>
  <property name="mute_on_pause">0</property>
  <property name="mlt_service">avformat-novalidate</property>
  <property name="meta.media.nb_streams">2</property>
  <property name="meta.media.0.stream.type">video</property>
  <property name="meta.media.0.stream.frame_rate">30</property>
  <property name="meta.media.0.stream.sample_aspect_ratio">0</property>
  <property name="meta.media.0.codec.width">1920</property>
  <property name="meta.media.0.codec.height">1080</property>
  <property name="meta.media.0.codec.rotate">0</property>
  <property name="meta.media.0.codec.pix_fmt">yuv420p</property>
  <property name="meta.media.0.codec.sample_aspect_ratio">1</property>
  <property name="meta.media.0.codec.colorspace">709</property>
  <property name="meta.media.0.codec.color_trc">1</property>
  <property name="meta.media.0.codec.name">h264</property>
  <property name="meta.media.0.codec.long_name">H.264 / AVC / MPEG-4 AVC / MPEG-4 part 10</property>
  <property name="meta.media.0.codec.bit_rate">0</property>
  <property name="meta.attr.0.stream.DURATION.markup">00:00:38.466000000</property>
  <property name="meta.media.1.stream.type">audio</property>
  <property name="meta.media.1.codec.sample_fmt">fltp</property>
  <property name="meta.media.1.codec.sample_rate">48000</property>
  <property name="meta.media.1.codec.channels">2</property>
  <property name="meta.media.1.codec.name">aac</property>
  <property name="meta.media.1.codec.long_name">AAC (Advanced Audio Coding)</property>
  <property name="meta.media.1.codec.bit_rate">0</property>
  <property name="meta.attr.1.stream.title.markup">simple_aac_recording0</property>
  <property name="meta.attr.1.stream.DURATION.markup">00:00:38.400000000</property>
  <property name="meta.attr.ENCODER.markup">Lavf60.3.100</property>
  <property name="seekable">1</property>
  <property name="meta.media.sample_aspect_num">1</property>
  <property name="meta.media.sample_aspect_den">1</property>
  <property name="aspect_ratio">1</property>
  <property name="format">3</property>
  <property name="kdenlive:clipname"/>
  <property name="meta.media.frame_rate_num">30</property>
  <property name="meta.media.frame_rate_den">1</property>
  <property name="meta.media.colorspace">709</property>
  <property name="meta.media.color_trc">1</property>
  <property name="meta.media.has_b_frames">2</property>
  <property name="meta.media.width">1920</property>
  <property name="meta.media.height">1080</property>
  <property name="meta.media.color_range">mpeg</property>
  <property name="meta.media.top_field_first">0</property>
  <property name="meta.media.progressive">1</property>
  <property name="kdenlive:clip_type">0</property>
  <property name="kdenlive:folderid">-1</property>
  <property name="kdenlive:id">3</property>
  <property name="kdenlive:file_size">3130568</property>
  <property name="kdenlive:file_hash">8986e057af2b01241d4c945c35952df7</property>
  <property name="kdenlive:audio_max1">151</property>
 </producer>
 <producer id="producer3" in="00:00:00.000" out="00:00:01.880">
  <property name="length">48</property>
  <property name="eof">pause</property>
  <property name="resource">2024-03-11 16-24-28.mkv</property>
  <property name="audio_index">1</property>
  <property name="video_index">0</property>
  <property name="mute_on_pause">0</property>
  <property name="mlt_service">avformat-novalidate</property>
  <property name="meta.media.nb_streams">2</property>
  <property name="meta.media.0.stream.type">video</property>
  <property name="meta.media.0.stream.frame_rate">30</property>
  <property name="meta.media.0.stream.sample_aspect_ratio">0</property>
  <property name="meta.media.0.codec.width">1920</property>
  <property name="meta.media.0.codec.height">1080</property>
  <property name="meta.media.0.codec.rotate">0</property>
  <property name="meta.media.0.codec.pix_fmt">yuv420p</property>
  <property name="meta.media.0.codec.sample_aspect_ratio">1</property>
  <property name="meta.media.0.codec.colorspace">709</property>
  <property name="meta.media.0.codec.color_trc">1</property>
  <property name="meta.media.0.codec.name">h264</property>
  <property name="meta.media.0.codec.long_name">H.264 / AVC / MPEG-4 AVC / MPEG-4 part 10</property>
  <property name="meta.media.0.codec.bit_rate">0</property>
  <property name="meta.attr.0.stream.DURATION.markup">00:00:01.900000000</property>
  <property name="meta.media.1.stream.type">audio</property>
  <property name="meta.media.1.codec.sample_fmt">fltp</property>
  <property name="meta.media.1.codec.sample_rate">48000</property>
  <property name="meta.media.1.codec.channels">2</property>
  <property name="meta.media.1.codec.name">aac</property>
  <property name="meta.media.1.codec.long_name">AAC (Advanced Audio Coding)</property>
  <property name="meta.media.1.codec.bit_rate">0</property>
  <property name="meta.attr.1.stream.title.markup">simple_aac_recording0</property>
  <property name="meta.attr.1.stream.DURATION.markup">00:00:01.834000000</property>
  <property name="meta.attr.ENCODER.markup">Lavf60.3.100</property>
  <property name="seekable">1</property>
  <property name="meta.media.sample_aspect_num">1</property>
  <property name="meta.media.sample_aspect_den">1</property>
  <property name="aspect_ratio">1</property>
  <property name="format">3</property>
  <property name="kdenlive:clipname"/>
  <property name="meta.media.frame_rate_num">30</property>
  <property name="meta.media.frame_rate_den">1</property>
  <property name="meta.media.colorspace">709</property>
  <property name="meta.media.color_trc">1</property>
  <property name="meta.media.has_b_frames">2</property>
  <property name="meta.media.width">1920</property>
  <property name="meta.media.height">1080</property>
  <property name="meta.media.color_range">mpeg</property>
  <property name="meta.media.top_field_first">0</property>
  <property name="meta.media.progressive">1</property>
  <property name="kdenlive:clip_type">0</property>
  <property name="kdenlive:folderid">-1</property>
  <property name="kdenlive:id">4</property>
  <property name="kdenlive:file_size">127727</property>
  <property name="kdenlive:file_hash">c1dfae2498d0c3a0086bf564a0859b89</property>
  <property name="kdenlive:audio_max1">74</property>
 </producer>
 <producer id="producer2" in="00:00:00.000" out="00:00:36.920">
  <property name="length">924</property>
  <property name="eof">pause</property>
  <property name="resource">2024-03-11 16-25-01.mkv</property>
  <property name="audio_index">1</property>
  <property name="video_index">0</property>
  <property name="mute_on_pause">0</property>
  <property name="mlt_service">avformat-novalidate</property>
  <property name="meta.media.nb_streams">2</property>
  <property name="meta.media.0.stream.type">video</property>
  <property name="meta.media.0.stream.frame_rate">30</property>
  <property name="meta.media.0.stream.sample_aspect_ratio">0</property>
  <property name="meta.media.0.codec.width">1920</property>
  <property name="meta.media.0.codec.height">1080</property>
  <property name="meta.media.0.codec.rotate">0</property>
  <property name="meta.media.0.codec.pix_fmt">yuv420p</property>
  <property name="meta.media.0.codec.sample_aspect_ratio">1</property>
  <property name="meta.media.0.codec.colorspace">709</property>
  <property name="meta.media.0.codec.color_trc">1</property>
  <property name="meta.media.0.codec.name">h264</property>
  <property name="meta.media.0.codec.long_name">H.264 / AVC / MPEG-4 AVC / MPEG-4 part 10</property>
  <property name="meta.media.0.codec.bit_rate">0</property>
  <property name="meta.attr.0.stream.DURATION.markup">00:00:36.966000000</property>
  <property name="meta.media.1.stream.type">audio</property>
  <property name="meta.media.1.codec.sample_fmt">fltp</property>
  <property name="meta.media.1.codec.sample_rate">48000</property>
  <property name="meta.media.1.codec.channels">2</property>
  <property name="meta.media.1.codec.name">aac</property>
  <property name="meta.media.1.codec.long_name">AAC (Advanced Audio Coding)</property>
  <property name="meta.media.1.codec.bit_rate">0</property>
  <property name="meta.attr.1.stream.title.markup">simple_aac_recording0</property>
  <property name="meta.attr.1.stream.DURATION.markup">00:00:36.906000000</property>
  <property name="meta.attr.ENCODER.markup">Lavf60.3.100</property>
  <property name="seekable">1</property>
  <property name="meta.media.sample_aspect_num">1</property>
  <property name="meta.media.sample_aspect_den">1</property>
  <property name="aspect_ratio">1</property>
  <property name="format">3</property>
  <property name="kdenlive:clipname"/>
  <property name="meta.media.frame_rate_num">30</property>
  <property name="meta.media.frame_rate_den">1</property>
  <property name="meta.media.colorspace">709</property>
  <property name="meta.media.color_trc">1</property>
  <property name="meta.media.has_b_frames">2</property>
  <property name="meta.media.width">1920</property>
  <property name="meta.media.height">1080</property>
  <property name="meta.media.color_range">mpeg</property>
  <property name="meta.media.top_field_first">0</property>
  <property name="meta.media.progressive">1</property>
  <property name="kdenlive:clip_type">0</property>
  <property name="kdenlive:folderid">-1</property>
  <property name="kdenlive:id">5</property>
  <property name="kdenlive:file_size">3326771</property>
  <property name="kdenlive:file_hash">22e0e011ea34c19939663b6d69336664</property>
  <property name="kdenlive:audio_max1">153</property>
 </producer>
 <producer id="producer6" in="00:00:00.000" out="00:00:05.760">
  <property name="length">145</property>
  <property name="eof">pause</property>
  <property name="resource">2024-03-11 16-31-32.mkv</property>
  <property name="audio_index">1</property>
  <property name="video_index">0</property>
  <property name="mute_on_pause">0</property>
  <property name="mlt_service">avformat-novalidate</property>
  <property name="meta.media.nb_streams">2</property>
  <property name="meta.media.0.stream.type">video</property>
  <property name="meta.media.0.stream.frame_rate">30</property>
  <property name="meta.media.0.stream.sample_aspect_ratio">0</property>
  <property name="meta.media.0.codec.width">1920</property>
  <property name="meta.media.0.codec.height">1080</property>
  <property name="meta.media.0.codec.rotate">0</property>
  <property name="meta.media.0.codec.pix_fmt">yuv420p</property>
  <property name="meta.media.0.codec.sample_aspect_ratio">1</property>
  <property name="meta.media.0.codec.colorspace">709</property>
  <property name="meta.media.0.codec.color_trc">1</property>
  <property name="meta.media.0.codec.name">h264</property>
  <property name="meta.media.0.codec.long_name">H.264 / AVC / MPEG-4 AVC / MPEG-4 part 10</property>
  <property name="meta.media.0.codec.bit_rate">0</property>
  <property name="meta.attr.0.stream.DURATION.markup">00:00:05.800000000</property>
  <property name="meta.media.1.stream.type">audio</property>
  <property name="meta.media.1.codec.sample_fmt">fltp</property>
  <property name="meta.media.1.codec.sample_rate">48000</property>
  <property name="meta.media.1.codec.channels">2</property>
  <property name="meta.media.1.codec.name">aac</property>
  <property name="meta.media.1.codec.long_name">AAC (Advanced Audio Coding)</property>
  <property name="meta.media.1.codec.bit_rate">0</property>
  <property name="meta.attr.1.stream.title.markup">simple_aac_recording0</property>
  <property name="meta.attr.1.stream.DURATION.markup">00:00:05.653000000</property>
  <property name="meta.attr.ENCODER.markup">Lavf60.3.100</property>
  <property name="seekable">1</property>
  <property name="meta.media.sample_aspect_num">1</property>
  <property name="meta.media.sample_aspect_den">1</property>
  <property name="aspect_ratio">1</property>
  <property name="format">3</property>
  <property name="kdenlive:clipname"/>
  <property name="meta.media.frame_rate_num">30</property>
  <property name="meta.media.frame_rate_den">1</property>
  <property name="meta.media.colorspace">709</property>
  <property name="meta.media.color_trc">1</property>
  <property name="meta.media.has_b_frames">2</property>
  <property name="meta.media.width">1920</property>
  <property name="meta.media.height">1080</property>
  <property name="meta.media.color_range">mpeg</property>
  <property name="meta.media.top_field_first">0</property>
  <property name="meta.media.progressive">1</property>
  <property name="kdenlive:clip_type">0</property>
  <property name="kdenlive:folderid">-1</property>
  <property name="kdenlive:id">6</property>
  <property name="kdenlive:file_size">550058</property>
  <property name="kdenlive:file_hash">16a0dc55051ae0f7c3f18fa8e9535a4e</property>
  <property name="kdenlive:audio_max1">73</property>
 </producer>
 <producer id="producer5" in="00:00:00.000" out="00:05:57.760">
  <property name="length">8945</property>
  <property name="eof">pause</property>
  <property name="resource">2024-03-11 16-31-48.mkv</property>
  <property name="audio_index">1</property>
  <property name="video_index">0</property>
  <property name="mute_on_pause">0</property>
  <property name="mlt_service">avformat-novalidate</property>
  <property name="meta.media.nb_streams">2</property>
  <property name="meta.media.0.stream.type">video</property>
  <property name="meta.media.0.stream.frame_rate">30</property>
  <property name="meta.media.0.stream.sample_aspect_ratio">0</property>
  <property name="meta.media.0.codec.width">1920</property>
  <property name="meta.media.0.codec.height">1080</property>
  <property name="meta.media.0.codec.rotate">0</property>
  <property name="meta.media.0.codec.pix_fmt">yuv420p</property>
  <property name="meta.media.0.codec.sample_aspect_ratio">1</property>
  <property name="meta.media.0.codec.colorspace">709</property>
  <property name="meta.media.0.codec.color_trc">1</property>
  <property name="meta.media.0.codec.name">h264</property>
  <property name="meta.media.0.codec.long_name">H.264 / AVC / MPEG-4 AVC / MPEG-4 part 10</property>
  <property name="meta.media.0.codec.bit_rate">0</property>
  <property name="meta.attr.0.stream.DURATION.markup">00:05:57.800000000</property>
  <property name="meta.media.1.stream.type">audio</property>
  <property name="meta.media.1.codec.sample_fmt">fltp</property>
  <property name="meta.media.1.codec.sample_rate">48000</property>
  <property name="meta.media.1.codec.channels">2</property>
  <property name="meta.media.1.codec.name">aac</property>
  <property name="meta.media.1.codec.long_name">AAC (Advanced Audio Coding)</property>
  <property name="meta.media.1.codec.bit_rate">0</property>
  <property name="meta.attr.1.stream.title.markup">simple_aac_recording0</property>
  <property name="meta.attr.1.stream.DURATION.markup">00:05:57.674000000</property>
  <property name="meta.attr.ENCODER.markup">Lavf60.3.100</property>
  <property name="seekable">1</property>
  <property name="meta.media.sample_aspect_num">1</property>
  <property name="meta.media.sample_aspect_den">1</property>
  <property name="aspect_ratio">1</property>
  <property name="format">3</property>
  <property name="kdenlive:clipname"/>
  <property name="meta.media.frame_rate_num">30</property>
  <property name="meta.media.frame_rate_den">1</property>
  <property name="meta.media.colorspace">709</property>
  <property name="meta.media.color_trc">1</property>
  <property name="meta.media.has_b_frames">2</property>
  <property name="meta.media.width">1920</property>
  <property name="meta.media.height">1080</property>
  <property name="meta.media.color_range">mpeg</property>
  <property name="meta.media.top_field_first">0</property>
  <property name="meta.media.progressive">1</property>
  <property name="kdenlive:clip_type">0</property>
  <property name="kdenlive:folderid">-1</property>
  <property name="kdenlive:id">7</property>
  <property name="kdenlive:file_size">21713104</property>
  <property name="kdenlive:file_hash">26430baffd88c37a1b806fbcc39714f8</property>
  <property name="kdenlive:audio_max1">173</property>
 </producer>
 <producer id="producer4" in="00:00:00.000" out="00:05:09.360">
  <property name="length">7735</property>
  <property name="eof">pause</property>
  <property name="resource">2024-03-11 18-33-15.mkv</property>
  <property name="audio_index">1</property>
  <property name="video_index">0</property>
  <property name="mute_on_pause">0</property>
  <property name="mlt_service">avformat-novalidate</property>
  <property name="meta.media.nb_streams">2</property>
  <property name="meta.media.0.stream.type">video</property>
  <property name="meta.media.0.stream.frame_rate">30</property>
  <property name="meta.media.0.stream.sample_aspect_ratio">0</property>
  <property name="meta.media.0.codec.width">1920</property>
  <property name="meta.media.0.codec.height">1080</property>
  <property name="meta.media.0.codec.rotate">0</property>
  <property name="meta.media.0.codec.pix_fmt">yuv420p</property>
  <property name="meta.media.0.codec.sample_aspect_ratio">1</property>
  <property name="meta.media.0.codec.colorspace">709</property>
  <property name="meta.media.0.codec.color_trc">1</property>
  <property name="meta.media.0.codec.name">h264</property>
  <property name="meta.media.0.codec.long_name">H.264 / AVC / MPEG-4 AVC / MPEG-4 part 10</property>
  <property name="meta.media.0.codec.bit_rate">0</property>
  <property name="meta.attr.0.stream.DURATION.markup">00:05:09.400000000</property>
  <property name="meta.media.1.stream.type">audio</property>
  <property name="meta.media.1.codec.sample_fmt">fltp</property>
  <property name="meta.media.1.codec.sample_rate">48000</property>
  <property name="meta.media.1.codec.channels">2</property>
  <property name="meta.media.1.codec.name">aac</property>
  <property name="meta.media.1.codec.long_name">AAC (Advanced Audio Coding)</property>
  <property name="meta.media.1.codec.bit_rate">0</property>
  <property name="meta.attr.1.stream.title.markup">simple_aac_recording0</property>
  <property name="meta.attr.1.stream.DURATION.markup">00:05:09.312000000</property>
  <property name="meta.attr.ENCODER.markup">Lavf60.3.100</property>
  <property name="seekable">1</property>
  <property name="meta.media.sample_aspect_num">1</property>
  <property name="meta.media.sample_aspect_den">1</property>
  <property name="aspect_ratio">1</property>
  <property name="format">3</property>
  <property name="kdenlive:clipname"/>
  <property name="meta.media.frame_rate_num">30</property>
  <property name="meta.media.frame_rate_den">1</property>
  <property name="meta.media.colorspace">709</property>
  <property name="meta.media.color_trc">1</property>
  <property name="meta.media.has_b_frames">2</property>
  <property name="meta.media.width">1920</property>
  <property name="meta.media.height">1080</property>
  <property name="meta.media.color_range">mpeg</property>
  <property name="meta.media.top_field_first">0</property>
  <property name="meta.media.progressive">1</property>
  <property name="kdenlive:clip_type">0</property>
  <property name="kdenlive:folderid">-1</property>
  <property name="kdenlive:id">8</property>
  <property name="kdenlive:file_size">35020975</property>
  <property name="kdenlive:file_hash">b12fa0663cb78fb871c0c7d62be7a8c9</property>
  <property name="kdenlive:audio_max1">140</property>
 </producer>
 <producer id="producer7" in="00:00:00.000" out="00:00:02.400">
  <property name="length">61</property>
  <property name="eof">pause</property>
  <property name="resource">2024-03-11 18-41-43.mkv</property>
  <property name="audio_index">1</property>
  <property name="video_index">0</property>
  <property name="mute_on_pause">0</property>
  <property name="mlt_service">avformat-novalidate</property>
  <property name="meta.media.nb_streams">2</property>
  <property name="meta.media.0.stream.type">video</property>
  <property name="meta.media.0.stream.frame_rate">30</property>
  <property name="meta.media.0.stream.sample_aspect_ratio">0</property>
  <property name="meta.media.0.codec.width">1920</property>
  <property name="meta.media.0.codec.height">1080</property>
  <property name="meta.media.0.codec.rotate">0</property>
  <property name="meta.media.0.codec.pix_fmt">yuv420p</property>
  <property name="meta.media.0.codec.sample_aspect_ratio">1</property>
  <property name="meta.media.0.codec.colorspace">709</property>
  <property name="meta.media.0.codec.color_trc">1</property>
  <property name="meta.media.0.codec.name">h264</property>
  <property name="meta.media.0.codec.long_name">H.264 / AVC / MPEG-4 AVC / MPEG-4 part 10</property>
  <property name="meta.media.0.codec.bit_rate">0</property>
  <property name="meta.attr.0.stream.DURATION.markup">00:00:02.433000000</property>
  <property name="meta.media.1.stream.type">audio</property>
  <property name="meta.media.1.codec.sample_fmt">fltp</property>
  <property name="meta.media.1.codec.sample_rate">48000</property>
  <property name="meta.media.1.codec.channels">2</property>
  <property name="meta.media.1.codec.name">aac</property>
  <property name="meta.media.1.codec.long_name">AAC (Advanced Audio Coding)</property>
  <property name="meta.media.1.codec.bit_rate">0</property>
  <property name="meta.attr.1.stream.title.markup">simple_aac_recording0</property>
  <property name="meta.attr.1.stream.DURATION.markup">00:00:02.304000000</property>
  <property name="meta.attr.ENCODER.markup">Lavf60.3.100</property>
  <property name="seekable">1</property>
  <property name="meta.media.sample_aspect_num">1</property>
  <property name="meta.media.sample_aspect_den">1</property>
  <property name="aspect_ratio">1</property>
  <property name="format">3</property>
  <property name="kdenlive:clipname"/>
  <property name="meta.media.frame_rate_num">30</property>
  <property name="meta.media.frame_rate_den">1</property>
  <property name="meta.media.colorspace">709</property>
  <property name="meta.media.color_trc">1</property>
  <property name="meta.media.has_b_frames">2</property>
  <property name="meta.media.width">1920</property>
  <property name="meta.media.height">1080</property>
  <property name="meta.media.color_range">mpeg</property>
  <property name="meta.media.top_field_first">0</property>
  <property name="meta.media.progressive">1</property>
  <property name="kdenlive:clip_type">0</property>
  <property name="kdenlive:folderid">-1</property>
  <property name="kdenlive:id">9</property>
  <property name="kdenlive:file_size">185346</property>
  <property name="kdenlive:file_hash">59bda44042d7259e65b91495da327010</property>
  <property name="kdenlive:audio_max1">58</property>
 </producer>
 <producer id="producer8" in="00:00:00.000" out="00:00:04.000">
  <property name="length">101</property>
  <property name="eof">pause</property>
  <property name="resource">2024-03-11 18-41-52.mkv</property>
  <property name="audio_index">1</property>
  <property name="video_index">0</property>
  <property name="mute_on_pause">0</property>
  <property name="mlt_service">avformat-novalidate</property>
  <property name="meta.media.nb_streams">2</property>
  <property name="meta.media.0.stream.type">video</property>
  <property name="meta.media.0.stream.frame_rate">30</property>
  <property name="meta.media.0.stream.sample_aspect_ratio">0</property>
  <property name="meta.media.0.codec.width">1920</property>
  <property name="meta.media.0.codec.height">1080</property>
  <property name="meta.media.0.codec.rotate">0</property>
  <property name="meta.media.0.codec.pix_fmt">yuv420p</property>
  <property name="meta.media.0.codec.sample_aspect_ratio">1</property>
  <property name="meta.media.0.codec.colorspace">709</property>
  <property name="meta.media.0.codec.color_trc">1</property>
  <property name="meta.media.0.codec.name">h264</property>
  <property name="meta.media.0.codec.long_name">H.264 / AVC / MPEG-4 AVC / MPEG-4 part 10</property>
  <property name="meta.media.0.codec.bit_rate">0</property>
  <property name="meta.attr.0.stream.DURATION.markup">00:00:04.033000000</property>
  <property name="meta.media.1.stream.type">audio</property>
  <property name="meta.media.1.codec.sample_fmt">fltp</property>
  <property name="meta.media.1.codec.sample_rate">48000</property>
  <property name="meta.media.1.codec.channels">2</property>
  <property name="meta.media.1.codec.name">aac</property>
  <property name="meta.media.1.codec.long_name">AAC (Advanced Audio Coding)</property>
  <property name="meta.media.1.codec.bit_rate">0</property>
  <property name="meta.attr.1.stream.title.markup">simple_aac_recording0</property>
  <property name="meta.attr.1.stream.DURATION.markup">00:00:03.904000000</property>
  <property name="meta.attr.ENCODER.markup">Lavf60.3.100</property>
  <property name="seekable">1</property>
  <property name="meta.media.sample_aspect_num">1</property>
  <property name="meta.media.sample_aspect_den">1</property>
  <property name="aspect_ratio">1</property>
  <property name="format">3</property>
  <property name="kdenlive:clipname"/>
  <property name="meta.media.frame_rate_num">30</property>
  <property name="meta.media.frame_rate_den">1</property>
  <property name="meta.media.colorspace">709</property>
  <property name="meta.media.color_trc">1</property>
  <property name="meta.media.has_b_frames">2</property>
  <property name="meta.media.width">1920</property>
  <property name="meta.media.height">1080</property>
  <property name="meta.media.color_range">mpeg</property>
  <property name="meta.media.top_field_first">0</property>
  <property name="meta.media.progressive">1</property>
  <property name="kdenlive:clip_type">0</property>
  <property name="kdenlive:folderid">-1</property>
  <property name="kdenlive:id">10</property>
  <property name="kdenlive:file_size">228136</property>
  <property name="kdenlive:file_hash">c327ddb1e84952dd2b70f6233071d031</property>
  <property name="kdenlive:audio_max1">119</property>
 </producer>
 <producer id="producer9" in="00:00:00.000" out="00:02:21.640">
  <property name="length">3542</property>
  <property name="eof">pause</property>
  <property name="resource">prblm_fixed.mkv</property>
  <property name="meta.media.nb_streams">2</property>
  <property name="meta.media.0.stream.type">video</property>
  <property name="meta.media.0.stream.frame_rate">30</property>
  <property name="meta.media.0.stream.sample_aspect_ratio">1</property>
  <property name="meta.media.0.codec.width">1920</property>
  <property name="meta.media.0.codec.height">1080</property>
  <property name="meta.media.0.codec.rotate">0</property>
  <property name="meta.media.0.codec.pix_fmt">yuv420p</property>
  <property name="meta.media.0.codec.sample_aspect_ratio">1</property>
  <property name="meta.media.0.codec.colorspace">709</property>
  <property name="meta.media.0.codec.color_trc">1</property>
  <property name="meta.media.0.codec.name">h264</property>
  <property name="meta.media.0.codec.long_name">H.264 / AVC / MPEG-4 AVC / MPEG-4 part 10</property>
  <property name="meta.media.0.codec.bit_rate">0</property>
  <property name="meta.attr.0.stream.DURATION.markup">00:02:21.666000000</property>
  <property name="meta.media.1.stream.type">audio</property>
  <property name="meta.media.1.codec.sample_fmt">fltp</property>
  <property name="meta.media.1.codec.sample_rate">48000</property>
  <property name="meta.media.1.codec.channels">2</property>
  <property name="meta.media.1.codec.name">aac</property>
  <property name="meta.media.1.codec.long_name">AAC (Advanced Audio Coding)</property>
  <property name="meta.media.1.codec.bit_rate">0</property>
  <property name="meta.attr.1.stream.title.markup">simple_aac_recording0</property>
  <property name="meta.attr.1.stream.DURATION.markup">00:02:21.568000000</property>
  <property name="meta.attr.ENCODER.markup">Lavf59.27.100</property>
  <property name="seekable">1</property>
  <property name="meta.media.sample_aspect_num">1</property>
  <property name="meta.media.sample_aspect_den">1</property>
  <property name="aspect_ratio">1</property>
  <property name="format">3</property>
  <property name="audio_index">1</property>
  <property name="video_index">0</property>
  <property name="mute_on_pause">0</property>
  <property name="mlt_service">avformat-novalidate</property>
  <property name="kdenlive:clipname"/>
  <property name="meta.media.frame_rate_num">30</property>
  <property name="meta.media.frame_rate_den">1</property>
  <property name="meta.media.colorspace">709</property>
  <property name="meta.media.color_trc">1</property>
  <property name="meta.media.has_b_frames">2</property>
  <property name="meta.media.width">1920</property>
  <property name="meta.media.height">1080</property>
  <property name="meta.media.color_range">mpeg</property>
  <property name="meta.media.top_field_first">0</property>
  <property name="meta.media.progressive">1</property>
  <property name="kdenlive:clip_type">0</property>
  <property name="kdenlive:folderid">-1</property>
  <property name="kdenlive:id">11</property>
  <property name="kdenlive:file_size">8356172</property>
  <property name="kdenlive:file_hash">032cbd0c9884ce0b47196c23663a8934</property>
  <property name="kdenlive:audio_max1">142</property>
 </producer>
 <producer id="producer10" in="00:00:00.000" out="00:00:04.800">
  <property name="length">121</property>
  <property name="eof">pause</property>
  <property name="resource">secu.mp3</property>
  <property name="meta.media.nb_streams">1</property>
  <property name="meta.media.0.stream.type">audio</property>
  <property name="meta.media.0.codec.sample_fmt">fltp</property>
  <property name="meta.media.0.codec.sample_rate">44100</property>
  <property name="meta.media.0.codec.channels">2</property>
  <property name="meta.media.0.codec.name">mp3float</property>
  <property name="meta.media.0.codec.long_name">MP3 (MPEG audio layer 3)</property>
  <property name="meta.media.0.codec.bit_rate">119856</property>
  <property name="seekable">1</property>
  <property name="audio_index">0</property>
  <property name="video_index">-1</property>
  <property name="mute_on_pause">1</property>
  <property name="mlt_service">avformat</property>
  <property name="kdenlive:clipname"/>
  <property name="kdenlive:clip_type">1</property>
  <property name="kdenlive:folderid">-1</property>
  <property name="kdenlive:id">12</property>
  <property name="kdenlive:file_size">73294</property>
  <property name="kdenlive:file_hash">9e4eb30c716cde0f37311690fbdd7ee9</property>
  <property name="kdenlive:audio_max0">66</property>
 </producer>
 <playlist id="main_bin">
  <property name="kdenlive:docproperties.activeTrack">3</property>
  <property name="kdenlive:docproperties.audioChannels">2</property>
  <property name="kdenlive:docproperties.audioTarget">1</property>
  <property name="kdenlive:docproperties.compositing">1</property>
  <property name="kdenlive:docproperties.disablepreview">0</property>
  <property name="kdenlive:docproperties.documentid">1710178508534</property>
  <property name="kdenlive:docproperties.enableTimelineZone">0</property>
  <property name="kdenlive:docproperties.enableexternalproxy">0</property>
  <property name="kdenlive:docproperties.enableproxy">0</property>
  <property name="kdenlive:docproperties.externalproxyparams">../Sub;;S03.MP4;../Clip;;.MXF</property>
  <property name="kdenlive:docproperties.generateimageproxy">0</property>
  <property name="kdenlive:docproperties.generateproxy">0</property>
  <property name="kdenlive:docproperties.groups">[
    {
        "children": [
            {
                "data": "0:11783",
                "leaf": "clip",
                "type": "Leaf"
            },
            {
                "data": "3:11783",
                "leaf": "clip",
                "type": "Leaf"
            }
        ],
        "type": "AVSplit"
    },
    {
        "children": [
            {
                "data": "0:11444",
                "leaf": "clip",
                "type": "Leaf"
            },
            {
                "data": "3:11444",
                "leaf": "clip",
                "type": "Leaf"
            }
        ],
        "type": "AVSplit"
    },
    {
        "children": [
            {
                "data": "0:8730",
                "leaf": "clip",
                "type": "Leaf"
            },
            {
                "data": "3:8730",
                "leaf": "clip",
                "type": "Leaf"
            }
        ],
        "type": "AVSplit"
    },
    {
        "children": [
            {
                "data": "0:12979",
                "leaf": "clip",
                "type": "Leaf"
            },
            {
                "data": "3:12979",
                "leaf": "clip",
                "type": "Leaf"
            }
        ],
        "type": "AVSplit"
    },
    {
        "children": [
            {
                "data": "3:5196",
                "leaf": "clip",
                "type": "Leaf"
            },
            {
                "data": "0:5196",
                "leaf": "clip",
                "type": "Leaf"
            }
        ],
        "type": "AVSplit"
    },
    {
        "children": [
            {
                "data": "3:7694",
                "leaf": "clip",
                "type": "Leaf"
            },
            {
                "data": "0:7694",
                "leaf": "clip",
                "type": "Leaf"
            }
        ],
        "type": "AVSplit"
    },
    {
        "children": [
            {
                "data": "0:6772",
                "leaf": "clip",
                "type": "Leaf"
            },
            {
                "data": "3:6772",
                "leaf": "clip",
                "type": "Leaf"
            }
        ],
        "type": "AVSplit"
    },
    {
        "children": [
            {
                "data": "3:10185",
                "leaf": "clip",
                "type": "Leaf"
            },
            {
                "data": "0:10185",
                "leaf": "clip",
                "type": "Leaf"
            }
        ],
        "type": "AVSplit"
    },
    {
        "children": [
            {
                "data": "0:6379",
                "leaf": "clip",
                "type": "Leaf"
            },
            {
                "data": "3:6379",
                "leaf": "clip",
                "type": "Leaf"
            }
        ],
        "type": "AVSplit"
    },
    {
        "children": [
            {
                "data": "0:8709",
                "leaf": "clip",
                "type": "Leaf"
            },
            {
                "data": "3:8709",
                "leaf": "clip",
                "type": "Leaf"
            }
        ],
        "type": "AVSplit"
    },
    {
        "children": [
            {
                "data": "3:7985",
                "leaf": "clip",
                "type": "Leaf"
            },
            {
                "data": "0:7985",
                "leaf": "clip",
                "type": "Leaf"
            }
        ],
        "type": "AVSplit"
    },
    {
        "children": [
            {
                "data": "0:7154",
                "leaf": "clip",
                "type": "Leaf"
            },
            {
                "data": "3:7154",
                "leaf": "clip",
                "type": "Leaf"
            }
        ],
        "type": "AVSplit"
    },
    {
        "children": [
            {
                "data": "0:13805",
                "leaf": "clip",
                "type": "Leaf"
            },
            {
                "data": "3:13805",
                "leaf": "clip",
                "type": "Leaf"
            }
        ],
        "type": "AVSplit"
    },
    {
        "children": [
            {
                "data": "3:13820",
                "leaf": "clip",
                "type": "Leaf"
            },
            {
                "data": "0:13820",
                "leaf": "clip",
                "type": "Leaf"
            }
        ],
        "type": "AVSplit"
    },
    {
        "children": [
            {
                "data": "0:14315",
                "leaf": "clip",
                "type": "Leaf"
            },
            {
                "data": "3:14315",
                "leaf": "clip",
                "type": "Leaf"
            }
        ],
        "type": "AVSplit"
    },
    {
        "children": [
            {
                "data": "0:14260",
                "leaf": "clip",
                "type": "Leaf"
            },
            {
                "data": "3:14260",
                "leaf": "clip",
                "type": "Leaf"
            }
        ],
        "type": "AVSplit"
    },
    {
        "children": [
            {
                "data": "3:6037",
                "leaf": "clip",
                "type": "Leaf"
            },
            {
                "data": "0:6037",
                "leaf": "clip",
                "type": "Leaf"
            }
        ],
        "type": "AVSplit"
    },
    {
        "children": [
            {
                "data": "3:14275",
                "leaf": "clip",
                "type": "Leaf"
            },
            {
                "data": "0:14275",
                "leaf": "clip",
                "type": "Leaf"
            }
        ],
        "type": "AVSplit"
    },
    {
        "children": [
            {
                "data": "0:8463",
                "leaf": "clip",
                "type": "Leaf"
            },
            {
                "data": "3:8463",
                "leaf": "clip",
                "type": "Leaf"
            }
        ],
        "type": "AVSplit"
    },
    {
        "children": [
            {
                "data": "0:6480",
                "leaf": "clip",
                "type": "Leaf"
            },
            {
                "data": "3:6480",
                "leaf": "clip",
                "type": "Leaf"
            }
        ],
        "type": "AVSplit"
    },
    {
        "children": [
            {
                "data": "0:12110",
                "leaf": "clip",
                "type": "Leaf"
            },
            {
                "data": "3:12110",
                "leaf": "clip",
                "type": "Leaf"
            }
        ],
        "type": "AVSplit"
    },
    {
        "children": [
            {
                "data": "3:5305",
                "leaf": "clip",
                "type": "Leaf"
            },
            {
                "data": "0:5305",
                "leaf": "clip",
                "type": "Leaf"
            }
        ],
        "type": "AVSplit"
    },
    {
        "children": [
            {
                "data": "3:8318",
                "leaf": "clip",
                "type": "Leaf"
            },
            {
                "data": "0:8318",
                "leaf": "clip",
                "type": "Leaf"
            }
        ],
        "type": "AVSplit"
    },
    {
        "children": [
            {
                "data": "3:5758",
                "leaf": "clip",
                "type": "Leaf"
            },
            {
                "data": "0:5758",
                "leaf": "clip",
                "type": "Leaf"
            }
        ],
        "type": "AVSplit"
    },
    {
        "children": [
            {
                "data": "3:10097",
                "leaf": "clip",
                "type": "Leaf"
            },
            {
                "data": "0:10097",
                "leaf": "clip",
                "type": "Leaf"
            }
        ],
        "type": "AVSplit"
    },
    {
        "children": [
            {
                "data": "0:0",
                "leaf": "clip",
                "type": "Leaf"
            },
            {
                "data": "3:0",
                "leaf": "clip",
                "type": "Leaf"
            }
        ],
        "type": "AVSplit"
    },
    {
        "children": [
            {
                "data": "3:7592",
                "leaf": "clip",
                "type": "Leaf"
            },
            {
                "data": "0:7592",
                "leaf": "clip",
                "type": "Leaf"
            }
        ],
        "type": "AVSplit"
    },
    {
        "children": [
            {
                "data": "3:7226",
                "leaf": "clip",
                "type": "Leaf"
            },
            {
                "data": "0:7226",
                "leaf": "clip",
                "type": "Leaf"
            }
        ],
        "type": "AVSplit"
    },
    {
        "children": [
            {
                "data": "0:11957",
                "leaf": "clip",
                "type": "Leaf"
            },
            {
                "data": "3:11957",
                "leaf": "clip",
                "type": "Leaf"
            }
        ],
        "type": "AVSplit"
    },
    {
        "children": [
            {
                "data": "3:8143",
                "leaf": "clip",
                "type": "Leaf"
            },
            {
                "data": "0:8143",
                "leaf": "clip",
                "type": "Leaf"
            }
        ],
        "type": "AVSplit"
    },
    {
        "children": [
            {
                "data": "3:8275",
                "leaf": "clip",
                "type": "Leaf"
            },
            {
                "data": "0:8275",
                "leaf": "clip",
                "type": "Leaf"
            }
        ],
        "type": "AVSplit"
    },
    {
        "children": [
            {
                "data": "3:13783",
                "leaf": "clip",
                "type": "Leaf"
            },
            {
                "data": "0:13783",
                "leaf": "clip",
                "type": "Leaf"
            }
        ],
        "type": "AVSplit"
    },
    {
        "children": [
            {
                "data": "0:8490",
                "leaf": "clip",
                "type": "Leaf"
            },
            {
                "data": "3:8490",
                "leaf": "clip",
                "type": "Leaf"
            }
        ],
        "type": "AVSplit"
    }
]
</property>
  <property name="kdenlive:docproperties.guidesCategories">[
    {
        "color": "#9b59b6",
        "comment": "Category 1",
        "index": 0
    },
    {
        "color": "#3daee9",
        "comment": "Category 2",
        "index": 1
    },
    {
        "color": "#1abc9c",
        "comment": "Category 3",
        "index": 2
    },
    {
        "color": "#1cdc9a",
        "comment": "Category 4",
        "index": 3
    },
    {
        "color": "#c9ce3b",
        "comment": "Category 5",
        "index": 4
    },
    {
        "color": "#fdbc4b",
        "comment": "Category 6",
        "index": 5
    },
    {
        "color": "#f39c1f",
        "comment": "Category 7",
        "index": 6
    },
    {
        "color": "#f47750",
        "comment": "Category 8",
        "index": 7
    },
    {
        "color": "#da4453",
        "comment": "Category 9",
        "index": 8
    }
]
</property>
  <property name="kdenlive:docproperties.kdenliveversion">22.12.3</property>
  <property name="kdenlive:docproperties.position">14399</property>
  <property name="kdenlive:docproperties.previewextension"/>
  <property name="kdenlive:docproperties.previewparameters"/>
  <property name="kdenlive:docproperties.profile">/home/glob/.local/share/kdenlive/profiles/customprofile2</property>
  <property name="kdenlive:docproperties.proxyextension">mkv</property>
  <property name="kdenlive:docproperties.proxyimageminsize">2000</property>
  <property name="kdenlive:docproperties.proxyimagesize">800</property>
  <property name="kdenlive:docproperties.proxyminsize">1000</property>
  <property name="kdenlive:docproperties.proxyparams">-vf yadif,scale=960:-2 -qscale 3 -vcodec mjpeg -acodec pcm_s16le</property>
  <property name="kdenlive:docproperties.proxyresize">640</property>
  <property name="kdenlive:docproperties.scrollPos">956</property>
  <property name="kdenlive:docproperties.seekOffset">30000</property>
  <property name="kdenlive:docproperties.version">1.04</property>
  <property name="kdenlive:docproperties.verticalzoom">1</property>
  <property name="kdenlive:docproperties.videoTarget">2</property>
  <property name="kdenlive:docproperties.zonein">0</property>
  <property name="kdenlive:docproperties.zoneout">75</property>
  <property name="kdenlive:docproperties.zoom">12</property>
  <property name="kdenlive:expandedFolders"/>
  <property name="kdenlive:documentnotes"/>
  <property name="xml_retain">1</property>
  <entry producer="producer0" in="00:00:00.000" out="00:03:59.480"/>
  <entry producer="producer1" in="00:00:00.000" out="00:00:38.440"/>
  <entry producer="producer3" in="00:00:00.000" out="00:00:01.880"/>
  <entry producer="producer2" in="00:00:00.000" out="00:00:36.920"/>
  <entry producer="producer6" in="00:00:00.000" out="00:00:05.760"/>
  <entry producer="producer5" in="00:00:00.000" out="00:05:57.760"/>
  <entry producer="producer4" in="00:00:00.000" out="00:05:09.360"/>
  <entry producer="producer7" in="00:00:00.000" out="00:00:02.400"/>
  <entry producer="producer8" in="00:00:00.000" out="00:00:04.000"/>
  <entry producer="producer9" in="00:00:00.000" out="00:02:21.640"/>
  <entry producer="producer10" in="00:00:00.000" out="00:00:04.800"/>
 </playlist>
 <producer id="black_track" in="00:00:00.000" out="00:29:36.000">
  <property name="length">2147483647</property>
  <property name="eof">continue</property>
  <property name="resource">black</property>
  <property name="aspect_ratio">1</property>
  <property name="mlt_service">color</property>
  <property name="mlt_image_format">rgba</property>
  <property name="set.test_audio">0</property>
 </producer>
 <producer id="producer11" in="00:00:00.000" out="00:05:57.760">
  <property name="length">8945</property>
  <property name="eof">pause</property>
  <property name="resource">2024-03-11 16-31-48.mkv</property>
  <property name="audio_index">1</property>
  <property name="video_index">0</property>
  <property name="mute_on_pause">0</property>
  <property name="mlt_service">avformat-novalidate</property>
  <property name="seekable">1</property>
  <property name="aspect_ratio">1</property>
  <property name="format">3</property>
  <property name="kdenlive:clipname"/>
  <property name="kdenlive:clip_type">0</property>
  <property name="kdenlive:folderid">-1</property>
  <property name="kdenlive:id">7</property>
  <property name="kdenlive:file_size">21713104</property>
  <property name="kdenlive:file_hash">26430baffd88c37a1b806fbcc39714f8</property>
  <property name="kdenlive:audio_max1">173</property>
  <property name="xml">was here</property>
  <property name="meta.media.nb_streams">2</property>
  <property name="meta.media.0.stream.type">video</property>
  <property name="meta.media.0.stream.frame_rate">30</property>
  <property name="meta.media.0.stream.sample_aspect_ratio">0</property>
  <property name="meta.media.0.codec.width">1920</property>
  <property name="meta.media.0.codec.height">1080</property>
  <property name="meta.media.0.codec.rotate">0</property>
  <property name="meta.media.0.codec.pix_fmt">yuv420p</property>
  <property name="meta.media.0.codec.sample_aspect_ratio">1</property>
  <property name="meta.media.0.codec.colorspace">709</property>
  <property name="meta.media.0.codec.color_trc">1</property>
  <property name="meta.media.0.codec.name">h264</property>
  <property name="meta.media.0.codec.long_name">H.264 / AVC / MPEG-4 AVC / MPEG-4 part 10</property>
  <property name="meta.media.0.codec.bit_rate">0</property>
  <property name="meta.attr.0.stream.DURATION.markup">00:05:57.800000000</property>
  <property name="meta.media.1.stream.type">audio</property>
  <property name="meta.media.1.codec.sample_fmt">fltp</property>
  <property name="meta.media.1.codec.sample_rate">48000</property>
  <property name="meta.media.1.codec.channels">2</property>
  <property name="meta.media.1.codec.name">aac</property>
  <property name="meta.media.1.codec.long_name">AAC (Advanced Audio Coding)</property>
  <property name="meta.media.1.codec.bit_rate">0</property>
  <property name="meta.attr.1.stream.title.markup">simple_aac_recording0</property>
  <property name="meta.attr.1.stream.DURATION.markup">00:05:57.674000000</property>
  <property name="meta.attr.ENCODER.markup">Lavf60.3.100</property>
  <property name="meta.media.sample_aspect_num">1</property>
  <property name="meta.media.sample_aspect_den">1</property>
  <property name="meta.media.frame_rate_num">30</property>
  <property name="meta.media.frame_rate_den">1</property>
  <property name="meta.media.colorspace">709</property>
  <property name="meta.media.color_trc">1</property>
  <property name="meta.media.has_b_frames">2</property>
  <property name="meta.media.width">1920</property>
  <property name="meta.media.height">1080</property>
  <property name="meta.media.color_range">mpeg</property>
  <property name="meta.media.top_field_first">0</property>
  <property name="meta.media.progressive">1</property>
  <property name="set.test_audio">0</property>
  <property name="set.test_image">1</property>
 </producer>
 <producer id="producer12" in="00:00:00.000" out="00:00:36.920">
  <property name="length">924</property>
  <property name="eof">pause</property>
  <property name="resource">2024-03-11 16-25-01.mkv</property>
  <property name="audio_index">1</property>
  <property name="video_index">0</property>
  <property name="mute_on_pause">0</property>
  <property name="mlt_service">avformat-novalidate</property>
  <property name="seekable">1</property>
  <property name="aspect_ratio">1</property>
  <property name="format">3</property>
  <property name="kdenlive:clipname"/>
  <property name="kdenlive:clip_type">0</property>
  <property name="kdenlive:folderid">-1</property>
  <property name="kdenlive:id">5</property>
  <property name="kdenlive:file_size">3326771</property>
  <property name="kdenlive:file_hash">22e0e011ea34c19939663b6d69336664</property>
  <property name="kdenlive:audio_max1">153</property>
  <property name="xml">was here</property>
  <property name="meta.media.nb_streams">2</property>
  <property name="meta.media.0.stream.type">video</property>
  <property name="meta.media.0.stream.frame_rate">30</property>
  <property name="meta.media.0.stream.sample_aspect_ratio">0</property>
  <property name="meta.media.0.codec.width">1920</property>
  <property name="meta.media.0.codec.height">1080</property>
  <property name="meta.media.0.codec.rotate">0</property>
  <property name="meta.media.0.codec.pix_fmt">yuv420p</property>
  <property name="meta.media.0.codec.sample_aspect_ratio">1</property>
  <property name="meta.media.0.codec.colorspace">709</property>
  <property name="meta.media.0.codec.color_trc">1</property>
  <property name="meta.media.0.codec.name">h264</property>
  <property name="meta.media.0.codec.long_name">H.264 / AVC / MPEG-4 AVC / MPEG-4 part 10</property>
  <property name="meta.media.0.codec.bit_rate">0</property>
  <property name="meta.attr.0.stream.DURATION.markup">00:00:36.966000000</property>
  <property name="meta.media.1.stream.type">audio</property>
  <property name="meta.media.1.codec.sample_fmt">fltp</property>
  <property name="meta.media.1.codec.sample_rate">48000</property>
  <property name="meta.media.1.codec.channels">2</property>
  <property name="meta.media.1.codec.name">aac</property>
  <property name="meta.media.1.codec.long_name">AAC (Advanced Audio Coding)</property>
  <property name="meta.media.1.codec.bit_rate">0</property>
  <property name="meta.attr.1.stream.title.markup">simple_aac_recording0</property>
  <property name="meta.attr.1.stream.DURATION.markup">00:00:36.906000000</property>
  <property name="meta.attr.ENCODER.markup">Lavf60.3.100</property>
  <property name="meta.media.sample_aspect_num">1</property>
  <property name="meta.media.sample_aspect_den">1</property>
  <property name="meta.media.frame_rate_num">30</property>
  <property name="meta.media.frame_rate_den">1</property>
  <property name="meta.media.colorspace">709</property>
  <property name="meta.media.color_trc">1</property>
  <property name="meta.media.has_b_frames">2</property>
  <property name="meta.media.width">1920</property>
  <property name="meta.media.height">1080</property>
  <property name="meta.media.color_range">mpeg</property>
  <property name="meta.media.top_field_first">0</property>
  <property name="meta.media.progressive">1</property>
  <property name="set.test_audio">0</property>
  <property name="set.test_image">1</property>
 </producer>
 <producer id="producer13" in="00:00:00.000" out="00:01:21.560">
  <property name="length">2040</property>
  <property name="eof">pause</property>
  <property name="resource">4.384900:2024-03-11 16-31-48.mkv</property>
  <property name="aspect_ratio">1</property>
  <property name="meta.media.nb_streams">2</property>
  <property name="meta.media.0.stream.type">video</property>
  <property name="meta.media.0.stream.frame_rate">30</property>
  <property name="meta.media.0.stream.sample_aspect_ratio">0</property>
  <property name="meta.media.0.codec.width">1920</property>
  <property name="meta.media.0.codec.height">1080</property>
  <property name="meta.media.0.codec.rotate">0</property>
  <property name="meta.media.0.codec.pix_fmt">yuv420p</property>
  <property name="meta.media.0.codec.sample_aspect_ratio">1</property>
  <property name="meta.media.0.codec.colorspace">709</property>
  <property name="meta.media.0.codec.color_trc">1</property>
  <property name="meta.media.0.codec.name">h264</property>
  <property name="meta.media.0.codec.long_name">H.264 / AVC / MPEG-4 AVC / MPEG-4 part 10</property>
  <property name="meta.media.0.codec.bit_rate">0</property>
  <property name="meta.attr.0.stream.DURATION.markup">00:05:57.800000000</property>
  <property name="meta.media.1.stream.type">audio</property>
  <property name="meta.media.1.codec.sample_fmt">fltp</property>
  <property name="meta.media.1.codec.sample_rate">48000</property>
  <property name="meta.media.1.codec.channels">2</property>
  <property name="meta.media.1.codec.name">aac</property>
  <property name="meta.media.1.codec.long_name">AAC (Advanced Audio Coding)</property>
  <property name="meta.media.1.codec.bit_rate">0</property>
  <property name="meta.attr.1.stream.title.markup">simple_aac_recording0</property>
  <property name="meta.attr.1.stream.DURATION.markup">00:05:57.674000000</property>
  <property name="meta.attr.ENCODER.markup">Lavf60.3.100</property>
  <property name="seekable">1</property>
  <property name="meta.media.sample_aspect_num">1</property>
  <property name="meta.media.sample_aspect_den">1</property>
  <property name="format">3</property>
  <property name="audio_index">1</property>
  <property name="video_index">0</property>
  <property name="mute_on_pause">1</property>
  <property name="warp_speed">4.3849</property>
  <property name="warp_resource">2024-03-11 16-31-48.mkv</property>
  <property name="mlt_service">timewarp</property>
  <property name="set.test_audio">0</property>
  <property name="set.test_image">1</property>
  <property name="kdenlive:id">7</property>
  <property name="warp_pitch">0</property>
  <property name="meta.media.frame_rate_num">30</property>
  <property name="meta.media.frame_rate_den">1</property>
  <property name="meta.media.colorspace">709</property>
  <property name="meta.media.color_trc">1</property>
  <property name="meta.media.has_b_frames">2</property>
  <property name="meta.media.width">1920</property>
  <property name="meta.media.height">1080</property>
  <property name="meta.media.color_range">mpeg</property>
 </producer>
 <producer id="producer14" in="00:00:00.000" out="00:02:21.640">
  <property name="length">3542</property>
  <property name="eof">pause</property>
  <property name="resource">prblm_fixed.mkv</property>
  <property name="audio_index">1</property>
  <property name="video_index">0</property>
  <property name="mute_on_pause">0</property>
  <property name="mlt_service">avformat-novalidate</property>
  <property name="seekable">1</property>
  <property name="aspect_ratio">1</property>
  <property name="format">3</property>
  <property name="kdenlive:clipname"/>
  <property name="kdenlive:clip_type">0</property>
  <property name="kdenlive:folderid">-1</property>
  <property name="kdenlive:id">11</property>
  <property name="kdenlive:file_size">8356172</property>
  <property name="kdenlive:file_hash">032cbd0c9884ce0b47196c23663a8934</property>
  <property name="kdenlive:audio_max1">142</property>
  <property name="xml">was here</property>
  <property name="meta.media.nb_streams">2</property>
  <property name="meta.media.0.stream.type">video</property>
  <property name="meta.media.0.stream.frame_rate">30</property>
  <property name="meta.media.0.stream.sample_aspect_ratio">1</property>
  <property name="meta.media.0.codec.width">1920</property>
  <property name="meta.media.0.codec.height">1080</property>
  <property name="meta.media.0.codec.rotate">0</property>
  <property name="meta.media.0.codec.pix_fmt">yuv420p</property>
  <property name="meta.media.0.codec.sample_aspect_ratio">1</property>
  <property name="meta.media.0.codec.colorspace">709</property>
  <property name="meta.media.0.codec.color_trc">1</property>
  <property name="meta.media.0.codec.name">h264</property>
  <property name="meta.media.0.codec.long_name">H.264 / AVC / MPEG-4 AVC / MPEG-4 part 10</property>
  <property name="meta.media.0.codec.bit_rate">0</property>
  <property name="meta.attr.0.stream.DURATION.markup">00:02:21.666000000</property>
  <property name="meta.media.1.stream.type">audio</property>
  <property name="meta.media.1.codec.sample_fmt">fltp</property>
  <property name="meta.media.1.codec.sample_rate">48000</property>
  <property name="meta.media.1.codec.channels">2</property>
  <property name="meta.media.1.codec.name">aac</property>
  <property name="meta.media.1.codec.long_name">AAC (Advanced Audio Coding)</property>
  <property name="meta.media.1.codec.bit_rate">0</property>
  <property name="meta.attr.1.stream.title.markup">simple_aac_recording0</property>
  <property name="meta.attr.1.stream.DURATION.markup">00:02:21.568000000</property>
  <property name="meta.attr.ENCODER.markup">Lavf59.27.100</property>
  <property name="meta.media.sample_aspect_num">1</property>
  <property name="meta.media.sample_aspect_den">1</property>
  <property name="meta.media.frame_rate_num">30</property>
  <property name="meta.media.frame_rate_den">1</property>
  <property name="meta.media.colorspace">709</property>
  <property name="meta.media.color_trc">1</property>
  <property name="meta.media.has_b_frames">2</property>
  <property name="meta.media.width">1920</property>
  <property name="meta.media.height">1080</property>
  <property name="meta.media.color_range">mpeg</property>
  <property name="meta.media.top_field_first">0</property>
  <property name="meta.media.progressive">1</property>
  <property name="set.test_audio">0</property>
  <property name="set.test_image">1</property>
 </producer>
 <producer id="producer15" in="00:00:00.000" out="00:00:12.880">
  <property name="length">323</property>
  <property name="eof">pause</property>
  <property name="resource">10.966300:prblm_fixed.mkv</property>
  <property name="aspect_ratio">1</property>
  <property name="meta.media.nb_streams">2</property>
  <property name="meta.media.0.stream.type">video</property>
  <property name="meta.media.0.stream.frame_rate">30</property>
  <property name="meta.media.0.stream.sample_aspect_ratio">1</property>
  <property name="meta.media.0.codec.width">1920</property>
  <property name="meta.media.0.codec.height">1080</property>
  <property name="meta.media.0.codec.rotate">0</property>
  <property name="meta.media.0.codec.pix_fmt">yuv420p</property>
  <property name="meta.media.0.codec.sample_aspect_ratio">1</property>
  <property name="meta.media.0.codec.colorspace">709</property>
  <property name="meta.media.0.codec.color_trc">1</property>
  <property name="meta.media.0.codec.name">h264</property>
  <property name="meta.media.0.codec.long_name">H.264 / AVC / MPEG-4 AVC / MPEG-4 part 10</property>
  <property name="meta.media.0.codec.bit_rate">0</property>
  <property name="meta.attr.0.stream.DURATION.markup">00:02:21.666000000</property>
  <property name="meta.media.1.stream.type">audio</property>
  <property name="meta.media.1.codec.sample_fmt">fltp</property>
  <property name="meta.media.1.codec.sample_rate">48000</property>
  <property name="meta.media.1.codec.channels">2</property>
  <property name="meta.media.1.codec.name">aac</property>
  <property name="meta.media.1.codec.long_name">AAC (Advanced Audio Coding)</property>
  <property name="meta.media.1.codec.bit_rate">0</property>
  <property name="meta.attr.1.stream.title.markup">simple_aac_recording0</property>
  <property name="meta.attr.1.stream.DURATION.markup">00:02:21.568000000</property>
  <property name="meta.attr.ENCODER.markup">Lavf59.27.100</property>
  <property name="seekable">1</property>
  <property name="meta.media.sample_aspect_num">1</property>
  <property name="meta.media.sample_aspect_den">1</property>
  <property name="format">3</property>
  <property name="audio_index">1</property>
  <property name="video_index">0</property>
  <property name="mute_on_pause">1</property>
  <property name="warp_speed">10.9663</property>
  <property name="warp_resource">prblm_fixed.mkv</property>
  <property name="mlt_service">timewarp</property>
  <property name="set.test_audio">0</property>
  <property name="set.test_image">1</property>
  <property name="kdenlive:id">11</property>
  <property name="warp_pitch">0</property>
  <property name="meta.media.frame_rate_num">30</property>
  <property name="meta.media.frame_rate_den">1</property>
  <property name="meta.media.colorspace">709</property>
  <property name="meta.media.color_trc">1</property>
  <property name="meta.media.has_b_frames">2</property>
  <property name="meta.media.width">1920</property>
  <property name="meta.media.height">1080</property>
  <property name="meta.media.color_range">mpeg</property>
 </producer>
 <producer id="producer16" in="00:00:00.000" out="00:00:11.840">
  <property name="length">297</property>
  <property name="eof">pause</property>
  <property name="resource">11.919400:prblm_fixed.mkv</property>
  <property name="aspect_ratio">1</property>
  <property name="meta.media.nb_streams">2</property>
  <property name="meta.media.0.stream.type">video</property>
  <property name="meta.media.0.stream.frame_rate">30</property>
  <property name="meta.media.0.stream.sample_aspect_ratio">1</property>
  <property name="meta.media.0.codec.width">1920</property>
  <property name="meta.media.0.codec.height">1080</property>
  <property name="meta.media.0.codec.rotate">0</property>
  <property name="meta.media.0.codec.pix_fmt">yuv420p</property>
  <property name="meta.media.0.codec.sample_aspect_ratio">1</property>
  <property name="meta.media.0.codec.colorspace">709</property>
  <property name="meta.media.0.codec.color_trc">1</property>
  <property name="meta.media.0.codec.name">h264</property>
  <property name="meta.media.0.codec.long_name">H.264 / AVC / MPEG-4 AVC / MPEG-4 part 10</property>
  <property name="meta.media.0.codec.bit_rate">0</property>
  <property name="meta.attr.0.stream.DURATION.markup">00:02:21.666000000</property>
  <property name="meta.media.1.stream.type">audio</property>
  <property name="meta.media.1.codec.sample_fmt">fltp</property>
  <property name="meta.media.1.codec.sample_rate">48000</property>
  <property name="meta.media.1.codec.channels">2</property>
  <property name="meta.media.1.codec.name">aac</property>
  <property name="meta.media.1.codec.long_name">AAC (Advanced Audio Coding)</property>
  <property name="meta.media.1.codec.bit_rate">0</property>
  <property name="meta.attr.1.stream.title.markup">simple_aac_recording0</property>
  <property name="meta.attr.1.stream.DURATION.markup">00:02:21.568000000</property>
  <property name="meta.attr.ENCODER.markup">Lavf59.27.100</property>
  <property name="seekable">1</property>
  <property name="meta.media.sample_aspect_num">1</property>
  <property name="meta.media.sample_aspect_den">1</property>
  <property name="format">3</property>
  <property name="audio_index">1</property>
  <property name="video_index">0</property>
  <property name="mute_on_pause">1</property>
  <property name="warp_speed">11.9194</property>
  <property name="warp_resource">prblm_fixed.mkv</property>
  <property name="mlt_service">timewarp</property>
  <property name="set.test_audio">0</property>
  <property name="set.test_image">1</property>
  <property name="kdenlive:id">11</property>
  <property name="warp_pitch">0</property>
  <property name="meta.media.frame_rate_num">30</property>
  <property name="meta.media.frame_rate_den">1</property>
  <property name="meta.media.colorspace">709</property>
  <property name="meta.media.color_trc">1</property>
  <property name="meta.media.has_b_frames">2</property>
  <property name="meta.media.width">1920</property>
  <property name="meta.media.height">1080</property>
  <property name="meta.media.color_range">mpeg</property>
 </producer>
 <producer id="producer17" in="00:00:00.000" out="00:05:09.360">
  <property name="length">7735</property>
  <property name="eof">pause</property>
  <property name="resource">2024-03-11 18-33-15.mkv</property>
  <property name="audio_index">1</property>
  <property name="video_index">0</property>
  <property name="mute_on_pause">0</property>
  <property name="mlt_service">avformat-novalidate</property>
  <property name="seekable">1</property>
  <property name="aspect_ratio">1</property>
  <property name="format">3</property>
  <property name="kdenlive:clipname"/>
  <property name="kdenlive:clip_type">0</property>
  <property name="kdenlive:folderid">-1</property>
  <property name="kdenlive:id">8</property>
  <property name="kdenlive:file_size">35020975</property>
  <property name="kdenlive:file_hash">b12fa0663cb78fb871c0c7d62be7a8c9</property>
  <property name="kdenlive:audio_max1">140</property>
  <property name="xml">was here</property>
  <property name="meta.media.nb_streams">2</property>
  <property name="meta.media.0.stream.type">video</property>
  <property name="meta.media.0.stream.frame_rate">30</property>
  <property name="meta.media.0.stream.sample_aspect_ratio">0</property>
  <property name="meta.media.0.codec.width">1920</property>
  <property name="meta.media.0.codec.height">1080</property>
  <property name="meta.media.0.codec.rotate">0</property>
  <property name="meta.media.0.codec.pix_fmt">yuv420p</property>
  <property name="meta.media.0.codec.sample_aspect_ratio">1</property>
  <property name="meta.media.0.codec.colorspace">709</property>
  <property name="meta.media.0.codec.color_trc">1</property>
  <property name="meta.media.0.codec.name">h264</property>
  <property name="meta.media.0.codec.long_name">H.264 / AVC / MPEG-4 AVC / MPEG-4 part 10</property>
  <property name="meta.media.0.codec.bit_rate">0</property>
  <property name="meta.attr.0.stream.DURATION.markup">00:05:09.400000000</property>
  <property name="meta.media.1.stream.type">audio</property>
  <property name="meta.media.1.codec.sample_fmt">fltp</property>
  <property name="meta.media.1.codec.sample_rate">48000</property>
  <property name="meta.media.1.codec.channels">2</property>
  <property name="meta.media.1.codec.name">aac</property>
  <property name="meta.media.1.codec.long_name">AAC (Advanced Audio Coding)</property>
  <property name="meta.media.1.codec.bit_rate">0</property>
  <property name="meta.attr.1.stream.title.markup">simple_aac_recording0</property>
  <property name="meta.attr.1.stream.DURATION.markup">00:05:09.312000000</property>
  <property name="meta.attr.ENCODER.markup">Lavf60.3.100</property>
  <property name="meta.media.sample_aspect_num">1</property>
  <property name="meta.media.sample_aspect_den">1</property>
  <property name="meta.media.frame_rate_num">30</property>
  <property name="meta.media.frame_rate_den">1</property>
  <property name="meta.media.colorspace">709</property>
  <property name="meta.media.color_trc">1</property>
  <property name="meta.media.has_b_frames">2</property>
  <property name="meta.media.width">1920</property>
  <property name="meta.media.height">1080</property>
  <property name="meta.media.color_range">mpeg</property>
  <property name="meta.media.top_field_first">0</property>
  <property name="meta.media.progressive">1</property>
  <property name="set.test_audio">0</property>
  <property name="set.test_image">1</property>
 </producer>
 <producer id="producer18" in="00:00:00.000" out="00:00:04.000">
  <property name="length">101</property>
  <property name="eof">pause</property>
  <property name="resource">2024-03-11 18-41-52.mkv</property>
  <property name="audio_index">1</property>
  <property name="video_index">0</property>
  <property name="mute_on_pause">0</property>
  <property name="mlt_service">avformat-novalidate</property>
  <property name="seekable">1</property>
  <property name="aspect_ratio">1</property>
  <property name="format">3</property>
  <property name="kdenlive:clipname"/>
  <property name="kdenlive:clip_type">0</property>
  <property name="kdenlive:folderid">-1</property>
  <property name="kdenlive:id">10</property>
  <property name="kdenlive:file_size">228136</property>
  <property name="kdenlive:file_hash">c327ddb1e84952dd2b70f6233071d031</property>
  <property name="kdenlive:audio_max1">119</property>
  <property name="xml">was here</property>
  <property name="meta.media.nb_streams">2</property>
  <property name="meta.media.0.stream.type">video</property>
  <property name="meta.media.0.stream.frame_rate">30</property>
  <property name="meta.media.0.stream.sample_aspect_ratio">0</property>
  <property name="meta.media.0.codec.width">1920</property>
  <property name="meta.media.0.codec.height">1080</property>
  <property name="meta.media.0.codec.rotate">0</property>
  <property name="meta.media.0.codec.pix_fmt">yuv420p</property>
  <property name="meta.media.0.codec.sample_aspect_ratio">1</property>
  <property name="meta.media.0.codec.colorspace">709</property>
  <property name="meta.media.0.codec.color_trc">1</property>
  <property name="meta.media.0.codec.name">h264</property>
  <property name="meta.media.0.codec.long_name">H.264 / AVC / MPEG-4 AVC / MPEG-4 part 10</property>
  <property name="meta.media.0.codec.bit_rate">0</property>
  <property name="meta.attr.0.stream.DURATION.markup">00:00:04.033000000</property>
  <property name="meta.media.1.stream.type">audio</property>
  <property name="meta.media.1.codec.sample_fmt">fltp</property>
  <property name="meta.media.1.codec.sample_rate">48000</property>
  <property name="meta.media.1.codec.channels">2</property>
  <property name="meta.media.1.codec.name">aac</property>
  <property name="meta.media.1.codec.long_name">AAC (Advanced Audio Coding)</property>
  <property name="meta.media.1.codec.bit_rate">0</property>
  <property name="meta.attr.1.stream.title.markup">simple_aac_recording0</property>
  <property name="meta.attr.1.stream.DURATION.markup">00:00:03.904000000</property>
  <property name="meta.attr.ENCODER.markup">Lavf60.3.100</property>
  <property name="meta.media.sample_aspect_num">1</property>
  <property name="meta.media.sample_aspect_den">1</property>
  <property name="meta.media.frame_rate_num">30</property>
  <property name="meta.media.frame_rate_den">1</property>
  <property name="meta.media.colorspace">709</property>
  <property name="meta.media.color_trc">1</property>
  <property name="meta.media.has_b_frames">2</property>
  <property name="meta.media.width">1920</property>
  <property name="meta.media.height">1080</property>
  <property name="meta.media.color_range">mpeg</property>
  <property name="meta.media.top_field_first">0</property>
  <property name="meta.media.progressive">1</property>
  <property name="set.test_audio">0</property>
  <property name="set.test_image">1</property>
 </producer>
 <playlist id="playlist0">
  <property name="kdenlive:audio_track">1</property>
  <entry producer="producer11" in="00:00:00.000" out="00:03:27.800">
   <property name="kdenlive:id">7</property>
  </entry>
  <entry producer="producer11" in="00:03:27.840" out="00:03:32.160">
   <property name="kdenlive:id">7</property>
  </entry>
  <entry producer="producer11" in="00:03:34.720" out="00:03:52.800">
   <property name="kdenlive:id">7</property>
  </entry>
  <entry producer="producer12" in="00:00:25.800" out="00:00:36.920">
   <property name="kdenlive:id">5</property>
  </entry>
  <entry producer="producer11" in="00:04:19.840" out="00:04:33.480">
   <property name="kdenlive:id">7</property>
  </entry>
  <entry producer="producer13" in="00:01:03.920" out="00:01:07.920">
   <property name="kdenlive:id">7</property>
  </entry>
  <entry producer="producer11" in="00:04:58.040" out="00:05:09.680">
   <property name="kdenlive:id">7</property>
  </entry>
  <entry producer="producer11" in="00:05:22.640" out="00:05:37.880">
   <property name="kdenlive:id">7</property>
  </entry>
  <entry producer="producer11" in="00:05:38.800" out="00:05:41.640">
   <property name="kdenlive:id">7</property>
  </entry>
  <entry producer="producer11" in="00:05:43.160" out="00:05:57.760">
   <property name="kdenlive:id">7</property>
  </entry>
  <entry producer="producer14" in="00:00:01.480" out="00:00:05.520">
   <property name="kdenlive:id">11</property>
  </entry>
  <entry producer="producer14" in="00:00:06.200" out="00:00:17.800">
   <property name="kdenlive:id">11</property>
  </entry>
  <entry producer="producer14" in="00:00:21.800" out="00:00:28.080">
   <property name="kdenlive:id">11</property>
  </entry>
  <entry producer="producer14" in="00:01:29.800" out="00:01:35.040">
   <property name="kdenlive:id">11</property>
  </entry>
  <entry producer="producer14" in="00:01:36.440" out="00:01:38.120">
   <property name="kdenlive:id">11</property>
  </entry>
  <entry producer="producer14" in="00:01:38.560" out="00:01:44.320">
   <property name="kdenlive:id">11</property>
  </entry>
  <entry producer="producer15" in="00:00:09.480" out="00:00:10.520">
   <property name="kdenlive:id">11</property>
  </entry>
  <entry producer="producer14" in="00:01:56.200" out="00:02:04.920">
   <property name="kdenlive:id">11</property>
  </entry>
  <entry producer="producer16" in="00:00:10.480" out="00:00:11.280">
   <property name="kdenlive:id">11</property>
  </entry>
  <entry producer="producer17" in="00:00:00.000" out="00:00:54.640">
   <property name="kdenlive:id">8</property>
  </entry>
  <entry producer="producer17" in="00:00:56.520" out="00:01:00.000">
   <property name="kdenlive:id">8</property>
  </entry>
  <entry producer="producer17" in="00:01:02.800" out="00:01:53.120">
   <property name="kdenlive:id">8</property>
  </entry>
  <entry producer="producer17" in="00:01:54.080" out="00:02:07.600">
   <property name="kdenlive:id">8</property>
  </entry>
  <entry producer="producer17" in="00:02:09.640" out="00:02:16.560">
   <property name="kdenlive:id">8</property>
  </entry>
  <entry producer="producer17" in="00:02:17.840" out="00:02:23.920">
   <property name="kdenlive:id">8</property>
  </entry>
  <entry producer="producer17" in="00:02:24.880" out="00:02:59.600">
   <property name="kdenlive:id">8</property>
  </entry>
  <entry producer="producer17" in="00:03:01.480" out="00:03:33.600">
   <property name="kdenlive:id">8</property>
  </entry>
  <entry producer="producer17" in="00:04:46.920" out="00:04:47.760">
   <property name="kdenlive:id">8</property>
  </entry>
  <entry producer="producer17" in="00:04:47.800" out="00:04:48.360">
   <property name="kdenlive:id">8</property>
  </entry>
  <entry producer="producer17" in="00:04:48.400" out="00:05:05.960">
   <property name="kdenlive:id">8</property>
  </entry>
  <entry producer="producer17" in="00:04:47.800" out="00:04:48.360">
   <property name="kdenlive:id">8</property>
  </entry>
  <entry producer="producer17" in="00:05:07.240" out="00:05:08.800">
   <property name="kdenlive:id">8</property>
  </entry>
  <entry producer="producer18" in="00:00:00.640" out="00:00:04.000">
   <property name="kdenlive:id">10</property>
  </entry>
 </playlist>
 <playlist id="playlist1">
  <property name="kdenlive:audio_track">1</property>
 </playlist>
 <tractor id="tractor0" in="00:00:00.000" out="00:09:35.960">
  <property name="kdenlive:audio_track">1</property>
  <property name="kdenlive:trackheight">64</property>
  <property name="kdenlive:timeline_active">1</property>
  <property name="kdenlive:collapsed">0</property>
  <property name="kdenlive:thumbs_format"/>
  <property name="kdenlive:audio_rec"/>
  <track hide="video" producer="playlist0"/>
  <track hide="video" producer="playlist1"/>
  <filter id="filter0">
   <property name="window">75</property>
   <property name="max_gain">20dB</property>
   <property name="mlt_service">volume</property>
   <property name="internal_added">237</property>
   <property name="disable">1</property>
  </filter>
  <filter id="filter1">
   <property name="channel">-1</property>
   <property name="mlt_service">panner</property>
   <property name="internal_added">237</property>
   <property name="start">0.5</property>
   <property name="disable">1</property>
  </filter>
  <filter id="filter2">
   <property name="iec_scale">0</property>
   <property name="mlt_service">audiolevel</property>
   <property name="dbpeak">1</property>
   <property name="disable">1</property>
  </filter>
 </tractor>
 <producer id="producer19" in="00:00:00.000" out="00:00:04.800">
  <property name="length">121</property>
  <property name="eof">pause</property>
  <property name="resource">secu.mp3</property>
  <property name="meta.media.nb_streams">1</property>
  <property name="meta.media.0.stream.type">audio</property>
  <property name="meta.media.0.codec.sample_fmt">fltp</property>
  <property name="meta.media.0.codec.sample_rate">44100</property>
  <property name="meta.media.0.codec.channels">2</property>
  <property name="meta.media.0.codec.name">mp3float</property>
  <property name="meta.media.0.codec.long_name">MP3 (MPEG audio layer 3)</property>
  <property name="meta.media.0.codec.bit_rate">119856</property>
  <property name="seekable">1</property>
  <property name="audio_index">0</property>
  <property name="video_index">-1</property>
  <property name="mute_on_pause">0</property>
  <property name="mlt_service">avformat-novalidate</property>
  <property name="kdenlive:clipname"/>
  <property name="kdenlive:clip_type">1</property>
  <property name="kdenlive:folderid">-1</property>
  <property name="kdenlive:id">12</property>
  <property name="kdenlive:file_size">73294</property>
  <property name="kdenlive:file_hash">9e4eb30c716cde0f37311690fbdd7ee9</property>
  <property name="kdenlive:audio_max0">66</property>
  <property name="xml">was here</property>
  <property name="set.test_audio">0</property>
  <property name="set.test_image">1</property>
 </producer>
 <playlist id="playlist2">
  <property name="kdenlive:audio_track">1</property>
  <blank length="00:05:33.360"/>
  <entry producer="producer19" in="00:00:00.000" out="00:00:04.800">
   <property name="kdenlive:id">12</property>
  </entry>
 </playlist>
 <playlist id="playlist3">
  <property name="kdenlive:audio_track">1</property>
 </playlist>
 <tractor id="tractor1" in="00:00:00.000" out="00:05:38.160">
  <property name="kdenlive:audio_track">1</property>
  <property name="kdenlive:trackheight">64</property>
  <property name="kdenlive:timeline_active">1</property>
  <property name="kdenlive:collapsed">0</property>
  <property name="kdenlive:thumbs_format"/>
  <property name="kdenlive:audio_rec"/>
  <track hide="video" producer="playlist2"/>
  <track hide="video" producer="playlist3"/>
  <filter id="filter3">
   <property name="window">75</property>
   <property name="max_gain">20dB</property>
   <property name="mlt_service">volume</property>
   <property name="internal_added">237</property>
   <property name="disable">1</property>
  </filter>
  <filter id="filter4">
   <property name="channel">-1</property>
   <property name="mlt_service">panner</property>
   <property name="internal_added">237</property>
   <property name="start">0.5</property>
   <property name="disable">1</property>
  </filter>
  <filter id="filter5">
   <property name="iec_scale">0</property>
   <property name="mlt_service">audiolevel</property>
   <property name="dbpeak">1</property>
   <property name="disable">1</property>
  </filter>
 </tractor>
 <playlist id="playlist4"/>
 <playlist id="playlist5"/>
 <tractor id="tractor2" in="00:00:00.000">
  <property name="kdenlive:trackheight">64</property>
  <property name="kdenlive:timeline_active">1</property>
  <property name="kdenlive:collapsed">28</property>
  <property name="kdenlive:thumbs_format"/>
  <property name="kdenlive:audio_rec"/>
  <track hide="audio" producer="playlist4"/>
  <track hide="audio" producer="playlist5"/>
 </tractor>
 <producer id="producer20" in="00:00:00.000" out="00:05:57.760">
  <property name="length">8945</property>
  <property name="eof">pause</property>
  <property name="resource">2024-03-11 16-31-48.mkv</property>
  <property name="audio_index">1</property>
  <property name="video_index">0</property>
  <property name="mute_on_pause">0</property>
  <property name="mlt_service">avformat-novalidate</property>
  <property name="seekable">1</property>
  <property name="aspect_ratio">1</property>
  <property name="format">3</property>
  <property name="kdenlive:clipname"/>
  <property name="kdenlive:clip_type">0</property>
  <property name="kdenlive:folderid">-1</property>
  <property name="kdenlive:id">7</property>
  <property name="kdenlive:file_size">21713104</property>
  <property name="kdenlive:file_hash">26430baffd88c37a1b806fbcc39714f8</property>
  <property name="kdenlive:audio_max1">173</property>
  <property name="xml">was here</property>
  <property name="meta.media.nb_streams">2</property>
  <property name="meta.media.0.stream.type">video</property>
  <property name="meta.media.0.stream.frame_rate">30</property>
  <property name="meta.media.0.stream.sample_aspect_ratio">0</property>
  <property name="meta.media.0.codec.width">1920</property>
  <property name="meta.media.0.codec.height">1080</property>
  <property name="meta.media.0.codec.rotate">0</property>
  <property name="meta.media.0.codec.pix_fmt">yuv420p</property>
  <property name="meta.media.0.codec.sample_aspect_ratio">1</property>
  <property name="meta.media.0.codec.colorspace">709</property>
  <property name="meta.media.0.codec.color_trc">1</property>
  <property name="meta.media.0.codec.name">h264</property>
  <property name="meta.media.0.codec.long_name">H.264 / AVC / MPEG-4 AVC / MPEG-4 part 10</property>
  <property name="meta.media.0.codec.bit_rate">0</property>
  <property name="meta.attr.0.stream.DURATION.markup">00:05:57.800000000</property>
  <property name="meta.media.1.stream.type">audio</property>
  <property name="meta.media.1.codec.sample_fmt">fltp</property>
  <property name="meta.media.1.codec.sample_rate">48000</property>
  <property name="meta.media.1.codec.channels">2</property>
  <property name="meta.media.1.codec.name">aac</property>
  <property name="meta.media.1.codec.long_name">AAC (Advanced Audio Coding)</property>
  <property name="meta.media.1.codec.bit_rate">0</property>
  <property name="meta.attr.1.stream.title.markup">simple_aac_recording0</property>
  <property name="meta.attr.1.stream.DURATION.markup">00:05:57.674000000</property>
  <property name="meta.attr.ENCODER.markup">Lavf60.3.100</property>
  <property name="meta.media.sample_aspect_num">1</property>
  <property name="meta.media.sample_aspect_den">1</property>
  <property name="meta.media.frame_rate_num">30</property>
  <property name="meta.media.frame_rate_den">1</property>
  <property name="meta.media.colorspace">709</property>
  <property name="meta.media.color_trc">1</property>
  <property name="meta.media.has_b_frames">2</property>
  <property name="meta.media.width">1920</property>
  <property name="meta.media.height">1080</property>
  <property name="meta.media.color_range">mpeg</property>
  <property name="meta.media.top_field_first">0</property>
  <property name="meta.media.progressive">1</property>
  <property name="set.test_audio">1</property>
  <property name="set.test_image">0</property>
 </producer>
 <producer id="producer21" in="00:00:00.000" out="00:00:36.920">
  <property name="length">924</property>
  <property name="eof">pause</property>
  <property name="resource">2024-03-11 16-25-01.mkv</property>
  <property name="audio_index">1</property>
  <property name="video_index">0</property>
  <property name="mute_on_pause">0</property>
  <property name="mlt_service">avformat-novalidate</property>
  <property name="seekable">1</property>
  <property name="aspect_ratio">1</property>
  <property name="format">3</property>
  <property name="kdenlive:clipname"/>
  <property name="kdenlive:clip_type">0</property>
  <property name="kdenlive:folderid">-1</property>
  <property name="kdenlive:id">5</property>
  <property name="kdenlive:file_size">3326771</property>
  <property name="kdenlive:file_hash">22e0e011ea34c19939663b6d69336664</property>
  <property name="kdenlive:audio_max1">153</property>
  <property name="xml">was here</property>
  <property name="meta.media.nb_streams">2</property>
  <property name="meta.media.0.stream.type">video</property>
  <property name="meta.media.0.stream.frame_rate">30</property>
  <property name="meta.media.0.stream.sample_aspect_ratio">0</property>
  <property name="meta.media.0.codec.width">1920</property>
  <property name="meta.media.0.codec.height">1080</property>
  <property name="meta.media.0.codec.rotate">0</property>
  <property name="meta.media.0.codec.pix_fmt">yuv420p</property>
  <property name="meta.media.0.codec.sample_aspect_ratio">1</property>
  <property name="meta.media.0.codec.colorspace">709</property>
  <property name="meta.media.0.codec.color_trc">1</property>
  <property name="meta.media.0.codec.name">h264</property>
  <property name="meta.media.0.codec.long_name">H.264 / AVC / MPEG-4 AVC / MPEG-4 part 10</property>
  <property name="meta.media.0.codec.bit_rate">0</property>
  <property name="meta.attr.0.stream.DURATION.markup">00:00:36.966000000</property>
  <property name="meta.media.1.stream.type">audio</property>
  <property name="meta.media.1.codec.sample_fmt">fltp</property>
  <property name="meta.media.1.codec.sample_rate">48000</property>
  <property name="meta.media.1.codec.channels">2</property>
  <property name="meta.media.1.codec.name">aac</property>
  <property name="meta.media.1.codec.long_name">AAC (Advanced Audio Coding)</property>
  <property name="meta.media.1.codec.bit_rate">0</property>
  <property name="meta.attr.1.stream.title.markup">simple_aac_recording0</property>
  <property name="meta.attr.1.stream.DURATION.markup">00:00:36.906000000</property>
  <property name="meta.attr.ENCODER.markup">Lavf60.3.100</property>
  <property name="meta.media.sample_aspect_num">1</property>
  <property name="meta.media.sample_aspect_den">1</property>
  <property name="meta.media.frame_rate_num">30</property>
  <property name="meta.media.frame_rate_den">1</property>
  <property name="meta.media.colorspace">709</property>
  <property name="meta.media.color_trc">1</property>
  <property name="meta.media.has_b_frames">2</property>
  <property name="meta.media.width">1920</property>
  <property name="meta.media.height">1080</property>
  <property name="meta.media.color_range">mpeg</property>
  <property name="meta.media.top_field_first">0</property>
  <property name="meta.media.progressive">1</property>
  <property name="set.test_audio">1</property>
  <property name="set.test_image">0</property>
 </producer>
 <producer id="producer22" in="00:00:00.000" out="00:01:21.560">
  <property name="length">2040</property>
  <property name="eof">pause</property>
  <property name="resource">4.384900:2024-03-11 16-31-48.mkv</property>
  <property name="aspect_ratio">1</property>
  <property name="meta.media.nb_streams">2</property>
  <property name="meta.media.0.stream.type">video</property>
  <property name="meta.media.0.stream.frame_rate">30</property>
  <property name="meta.media.0.stream.sample_aspect_ratio">0</property>
  <property name="meta.media.0.codec.width">1920</property>
  <property name="meta.media.0.codec.height">1080</property>
  <property name="meta.media.0.codec.rotate">0</property>
  <property name="meta.media.0.codec.pix_fmt">yuv420p</property>
  <property name="meta.media.0.codec.sample_aspect_ratio">1</property>
  <property name="meta.media.0.codec.colorspace">709</property>
  <property name="meta.media.0.codec.color_trc">1</property>
  <property name="meta.media.0.codec.name">h264</property>
  <property name="meta.media.0.codec.long_name">H.264 / AVC / MPEG-4 AVC / MPEG-4 part 10</property>
  <property name="meta.media.0.codec.bit_rate">0</property>
  <property name="meta.attr.0.stream.DURATION.markup">00:05:57.800000000</property>
  <property name="meta.media.1.stream.type">audio</property>
  <property name="meta.media.1.codec.sample_fmt">fltp</property>
  <property name="meta.media.1.codec.sample_rate">48000</property>
  <property name="meta.media.1.codec.channels">2</property>
  <property name="meta.media.1.codec.name">aac</property>
  <property name="meta.media.1.codec.long_name">AAC (Advanced Audio Coding)</property>
  <property name="meta.media.1.codec.bit_rate">0</property>
  <property name="meta.attr.1.stream.title.markup">simple_aac_recording0</property>
  <property name="meta.attr.1.stream.DURATION.markup">00:05:57.674000000</property>
  <property name="meta.attr.ENCODER.markup">Lavf60.3.100</property>
  <property name="seekable">1</property>
  <property name="meta.media.sample_aspect_num">1</property>
  <property name="meta.media.sample_aspect_den">1</property>
  <property name="format">3</property>
  <property name="audio_index">1</property>
  <property name="video_index">0</property>
  <property name="mute_on_pause">1</property>
  <property name="warp_speed">4.3849</property>
  <property name="warp_resource">2024-03-11 16-31-48.mkv</property>
  <property name="mlt_service">timewarp</property>
  <property name="set.test_audio">1</property>
  <property name="set.test_image">0</property>
  <property name="kdenlive:id">7</property>
  <property name="warp_pitch">0</property>
  <property name="meta.media.frame_rate_num">30</property>
  <property name="meta.media.frame_rate_den">1</property>
  <property name="meta.media.colorspace">709</property>
  <property name="meta.media.color_trc">1</property>
  <property name="meta.media.has_b_frames">2</property>
  <property name="meta.media.width">1920</property>
  <property name="meta.media.height">1080</property>
  <property name="meta.media.color_range">mpeg</property>
  <property name="meta.media.top_field_first">0</property>
  <property name="meta.media.progressive">1</property>
 </producer>
 <producer id="producer23" in="00:00:00.000" out="00:02:21.640">
  <property name="length">3542</property>
  <property name="eof">pause</property>
  <property name="resource">prblm_fixed.mkv</property>
  <property name="audio_index">1</property>
  <property name="video_index">0</property>
  <property name="mute_on_pause">0</property>
  <property name="mlt_service">avformat-novalidate</property>
  <property name="seekable">1</property>
  <property name="aspect_ratio">1</property>
  <property name="format">3</property>
  <property name="kdenlive:clipname"/>
  <property name="kdenlive:clip_type">0</property>
  <property name="kdenlive:folderid">-1</property>
  <property name="kdenlive:id">11</property>
  <property name="kdenlive:file_size">8356172</property>
  <property name="kdenlive:file_hash">032cbd0c9884ce0b47196c23663a8934</property>
  <property name="kdenlive:audio_max1">142</property>
  <property name="xml">was here</property>
  <property name="meta.media.nb_streams">2</property>
  <property name="meta.media.0.stream.type">video</property>
  <property name="meta.media.0.stream.frame_rate">30</property>
  <property name="meta.media.0.stream.sample_aspect_ratio">1</property>
  <property name="meta.media.0.codec.width">1920</property>
  <property name="meta.media.0.codec.height">1080</property>
  <property name="meta.media.0.codec.rotate">0</property>
  <property name="meta.media.0.codec.pix_fmt">yuv420p</property>
  <property name="meta.media.0.codec.sample_aspect_ratio">1</property>
  <property name="meta.media.0.codec.colorspace">709</property>
  <property name="meta.media.0.codec.color_trc">1</property>
  <property name="meta.media.0.codec.name">h264</property>
  <property name="meta.media.0.codec.long_name">H.264 / AVC / MPEG-4 AVC / MPEG-4 part 10</property>
  <property name="meta.media.0.codec.bit_rate">0</property>
  <property name="meta.attr.0.stream.DURATION.markup">00:02:21.666000000</property>
  <property name="meta.media.1.stream.type">audio</property>
  <property name="meta.media.1.codec.sample_fmt">fltp</property>
  <property name="meta.media.1.codec.sample_rate">48000</property>
  <property name="meta.media.1.codec.channels">2</property>
  <property name="meta.media.1.codec.name">aac</property>
  <property name="meta.media.1.codec.long_name">AAC (Advanced Audio Coding)</property>
  <property name="meta.media.1.codec.bit_rate">0</property>
  <property name="meta.attr.1.stream.title.markup">simple_aac_recording0</property>
  <property name="meta.attr.1.stream.DURATION.markup">00:02:21.568000000</property>
  <property name="meta.attr.ENCODER.markup">Lavf59.27.100</property>
  <property name="meta.media.sample_aspect_num">1</property>
  <property name="meta.media.sample_aspect_den">1</property>
  <property name="meta.media.frame_rate_num">30</property>
  <property name="meta.media.frame_rate_den">1</property>
  <property name="meta.media.colorspace">709</property>
  <property name="meta.media.color_trc">1</property>
  <property name="meta.media.has_b_frames">2</property>
  <property name="meta.media.width">1920</property>
  <property name="meta.media.height">1080</property>
  <property name="meta.media.color_range">mpeg</property>
  <property name="meta.media.top_field_first">0</property>
  <property name="meta.media.progressive">1</property>
  <property name="set.test_audio">1</property>
  <property name="set.test_image">0</property>
 </producer>
 <producer id="producer24" in="00:00:00.000" out="00:00:12.880">
  <property name="length">323</property>
  <property name="eof">pause</property>
  <property name="resource">10.966300:prblm_fixed.mkv</property>
  <property name="aspect_ratio">1</property>
  <property name="meta.media.nb_streams">2</property>
  <property name="meta.media.0.stream.type">video</property>
  <property name="meta.media.0.stream.frame_rate">30</property>
  <property name="meta.media.0.stream.sample_aspect_ratio">1</property>
  <property name="meta.media.0.codec.width">1920</property>
  <property name="meta.media.0.codec.height">1080</property>
  <property name="meta.media.0.codec.rotate">0</property>
  <property name="meta.media.0.codec.pix_fmt">yuv420p</property>
  <property name="meta.media.0.codec.sample_aspect_ratio">1</property>
  <property name="meta.media.0.codec.colorspace">709</property>
  <property name="meta.media.0.codec.color_trc">1</property>
  <property name="meta.media.0.codec.name">h264</property>
  <property name="meta.media.0.codec.long_name">H.264 / AVC / MPEG-4 AVC / MPEG-4 part 10</property>
  <property name="meta.media.0.codec.bit_rate">0</property>
  <property name="meta.attr.0.stream.DURATION.markup">00:02:21.666000000</property>
  <property name="meta.media.1.stream.type">audio</property>
  <property name="meta.media.1.codec.sample_fmt">fltp</property>
  <property name="meta.media.1.codec.sample_rate">48000</property>
  <property name="meta.media.1.codec.channels">2</property>
  <property name="meta.media.1.codec.name">aac</property>
  <property name="meta.media.1.codec.long_name">AAC (Advanced Audio Coding)</property>
  <property name="meta.media.1.codec.bit_rate">0</property>
  <property name="meta.attr.1.stream.title.markup">simple_aac_recording0</property>
  <property name="meta.attr.1.stream.DURATION.markup">00:02:21.568000000</property>
  <property name="meta.attr.ENCODER.markup">Lavf59.27.100</property>
  <property name="seekable">1</property>
  <property name="meta.media.sample_aspect_num">1</property>
  <property name="meta.media.sample_aspect_den">1</property>
  <property name="format">3</property>
  <property name="audio_index">1</property>
  <property name="video_index">0</property>
  <property name="mute_on_pause">1</property>
  <property name="warp_speed">10.9663</property>
  <property name="warp_resource">prblm_fixed.mkv</property>
  <property name="mlt_service">timewarp</property>
  <property name="set.test_audio">1</property>
  <property name="set.test_image">0</property>
  <property name="kdenlive:id">11</property>
  <property name="warp_pitch">0</property>
  <property name="meta.media.frame_rate_num">30</property>
  <property name="meta.media.frame_rate_den">1</property>
  <property name="meta.media.colorspace">709</property>
  <property name="meta.media.color_trc">1</property>
  <property name="meta.media.has_b_frames">2</property>
  <property name="meta.media.width">1920</property>
  <property name="meta.media.height">1080</property>
  <property name="meta.media.color_range">mpeg</property>
  <property name="meta.media.top_field_first">0</property>
  <property name="meta.media.progressive">1</property>
 </producer>
 <producer id="producer25" in="00:00:00.000" out="00:00:11.840">
  <property name="length">297</property>
  <property name="eof">pause</property>
  <property name="resource">11.919400:prblm_fixed.mkv</property>
  <property name="aspect_ratio">1</property>
  <property name="meta.media.nb_streams">2</property>
  <property name="meta.media.0.stream.type">video</property>
  <property name="meta.media.0.stream.frame_rate">30</property>
  <property name="meta.media.0.stream.sample_aspect_ratio">1</property>
  <property name="meta.media.0.codec.width">1920</property>
  <property name="meta.media.0.codec.height">1080</property>
  <property name="meta.media.0.codec.rotate">0</property>
  <property name="meta.media.0.codec.pix_fmt">yuv420p</property>
  <property name="meta.media.0.codec.sample_aspect_ratio">1</property>
  <property name="meta.media.0.codec.colorspace">709</property>
  <property name="meta.media.0.codec.color_trc">1</property>
  <property name="meta.media.0.codec.name">h264</property>
  <property name="meta.media.0.codec.long_name">H.264 / AVC / MPEG-4 AVC / MPEG-4 part 10</property>
  <property name="meta.media.0.codec.bit_rate">0</property>
  <property name="meta.attr.0.stream.DURATION.markup">00:02:21.666000000</property>
  <property name="meta.media.1.stream.type">audio</property>
  <property name="meta.media.1.codec.sample_fmt">fltp</property>
  <property name="meta.media.1.codec.sample_rate">48000</property>
  <property name="meta.media.1.codec.channels">2</property>
  <property name="meta.media.1.codec.name">aac</property>
  <property name="meta.media.1.codec.long_name">AAC (Advanced Audio Coding)</property>
  <property name="meta.media.1.codec.bit_rate">0</property>
  <property name="meta.attr.1.stream.title.markup">simple_aac_recording0</property>
  <property name="meta.attr.1.stream.DURATION.markup">00:02:21.568000000</property>
  <property name="meta.attr.ENCODER.markup">Lavf59.27.100</property>
  <property name="seekable">1</property>
  <property name="meta.media.sample_aspect_num">1</property>
  <property name="meta.media.sample_aspect_den">1</property>
  <property name="format">3</property>
  <property name="audio_index">1</property>
  <property name="video_index">0</property>
  <property name="mute_on_pause">1</property>
  <property name="warp_speed">11.9194</property>
  <property name="warp_resource">prblm_fixed.mkv</property>
  <property name="mlt_service">timewarp</property>
  <property name="set.test_audio">1</property>
  <property name="set.test_image">0</property>
  <property name="kdenlive:id">11</property>
  <property name="warp_pitch">0</property>
  <property name="meta.media.frame_rate_num">30</property>
  <property name="meta.media.frame_rate_den">1</property>
  <property name="meta.media.colorspace">709</property>
  <property name="meta.media.color_trc">1</property>
  <property name="meta.media.has_b_frames">2</property>
  <property name="meta.media.width">1920</property>
  <property name="meta.media.height">1080</property>
  <property name="meta.media.color_range">mpeg</property>
  <property name="meta.media.top_field_first">0</property>
  <property name="meta.media.progressive">1</property>
 </producer>
 <producer id="producer26" in="00:00:00.000" out="00:05:09.360">
  <property name="length">7735</property>
  <property name="eof">pause</property>
  <property name="resource">2024-03-11 18-33-15.mkv</property>
  <property name="audio_index">1</property>
  <property name="video_index">0</property>
  <property name="mute_on_pause">0</property>
  <property name="mlt_service">avformat-novalidate</property>
  <property name="seekable">1</property>
  <property name="aspect_ratio">1</property>
  <property name="format">3</property>
  <property name="kdenlive:clipname"/>
  <property name="kdenlive:clip_type">0</property>
  <property name="kdenlive:folderid">-1</property>
  <property name="kdenlive:id">8</property>
  <property name="kdenlive:file_size">35020975</property>
  <property name="kdenlive:file_hash">b12fa0663cb78fb871c0c7d62be7a8c9</property>
  <property name="kdenlive:audio_max1">140</property>
  <property name="xml">was here</property>
  <property name="meta.media.nb_streams">2</property>
  <property name="meta.media.0.stream.type">video</property>
  <property name="meta.media.0.stream.frame_rate">30</property>
  <property name="meta.media.0.stream.sample_aspect_ratio">0</property>
  <property name="meta.media.0.codec.width">1920</property>
  <property name="meta.media.0.codec.height">1080</property>
  <property name="meta.media.0.codec.rotate">0</property>
  <property name="meta.media.0.codec.pix_fmt">yuv420p</property>
  <property name="meta.media.0.codec.sample_aspect_ratio">1</property>
  <property name="meta.media.0.codec.colorspace">709</property>
  <property name="meta.media.0.codec.color_trc">1</property>
  <property name="meta.media.0.codec.name">h264</property>
  <property name="meta.media.0.codec.long_name">H.264 / AVC / MPEG-4 AVC / MPEG-4 part 10</property>
  <property name="meta.media.0.codec.bit_rate">0</property>
  <property name="meta.attr.0.stream.DURATION.markup">00:05:09.400000000</property>
  <property name="meta.media.1.stream.type">audio</property>
  <property name="meta.media.1.codec.sample_fmt">fltp</property>
  <property name="meta.media.1.codec.sample_rate">48000</property>
  <property name="meta.media.1.codec.channels">2</property>
  <property name="meta.media.1.codec.name">aac</property>
  <property name="meta.media.1.codec.long_name">AAC (Advanced Audio Coding)</property>
  <property name="meta.media.1.codec.bit_rate">0</property>
  <property name="meta.attr.1.stream.title.markup">simple_aac_recording0</property>
  <property name="meta.attr.1.stream.DURATION.markup">00:05:09.312000000</property>
  <property name="meta.attr.ENCODER.markup">Lavf60.3.100</property>
  <property name="meta.media.sample_aspect_num">1</property>
  <property name="meta.media.sample_aspect_den">1</property>
  <property name="meta.media.frame_rate_num">30</property>
  <property name="meta.media.frame_rate_den">1</property>
  <property name="meta.media.colorspace">709</property>
  <property name="meta.media.color_trc">1</property>
  <property name="meta.media.has_b_frames">2</property>
  <property name="meta.media.width">1920</property>
  <property name="meta.media.height">1080</property>
  <property name="meta.media.color_range">mpeg</property>
  <property name="meta.media.top_field_first">0</property>
  <property name="meta.media.progressive">1</property>
  <property name="set.test_audio">1</property>
  <property name="set.test_image">0</property>
 </producer>
 <producer id="producer27" in="00:00:00.000" out="00:00:04.000">
  <property name="length">101</property>
  <property name="eof">pause</property>
  <property name="resource">2024-03-11 18-41-52.mkv</property>
  <property name="audio_index">1</property>
  <property name="video_index">0</property>
  <property name="mute_on_pause">0</property>
  <property name="mlt_service">avformat-novalidate</property>
  <property name="seekable">1</property>
  <property name="aspect_ratio">1</property>
  <property name="format">3</property>
  <property name="kdenlive:clipname"/>
  <property name="kdenlive:clip_type">0</property>
  <property name="kdenlive:folderid">-1</property>
  <property name="kdenlive:id">10</property>
  <property name="kdenlive:file_size">228136</property>
  <property name="kdenlive:file_hash">c327ddb1e84952dd2b70f6233071d031</property>
  <property name="kdenlive:audio_max1">119</property>
  <property name="xml">was here</property>
  <property name="meta.media.nb_streams">2</property>
  <property name="meta.media.0.stream.type">video</property>
  <property name="meta.media.0.stream.frame_rate">30</property>
  <property name="meta.media.0.stream.sample_aspect_ratio">0</property>
  <property name="meta.media.0.codec.width">1920</property>
  <property name="meta.media.0.codec.height">1080</property>
  <property name="meta.media.0.codec.rotate">0</property>
  <property name="meta.media.0.codec.pix_fmt">yuv420p</property>
  <property name="meta.media.0.codec.sample_aspect_ratio">1</property>
  <property name="meta.media.0.codec.colorspace">709</property>
  <property name="meta.media.0.codec.color_trc">1</property>
  <property name="meta.media.0.codec.name">h264</property>
  <property name="meta.media.0.codec.long_name">H.264 / AVC / MPEG-4 AVC / MPEG-4 part 10</property>
  <property name="meta.media.0.codec.bit_rate">0</property>
  <property name="meta.attr.0.stream.DURATION.markup">00:00:04.033000000</property>
  <property name="meta.media.1.stream.type">audio</property>
  <property name="meta.media.1.codec.sample_fmt">fltp</property>
  <property name="meta.media.1.codec.sample_rate">48000</property>
  <property name="meta.media.1.codec.channels">2</property>
  <property name="meta.media.1.codec.name">aac</property>
  <property name="meta.media.1.codec.long_name">AAC (Advanced Audio Coding)</property>
  <property name="meta.media.1.codec.bit_rate">0</property>
  <property name="meta.attr.1.stream.title.markup">simple_aac_recording0</property>
  <property name="meta.attr.1.stream.DURATION.markup">00:00:03.904000000</property>
  <property name="meta.attr.ENCODER.markup">Lavf60.3.100</property>
  <property name="meta.media.sample_aspect_num">1</property>
  <property name="meta.media.sample_aspect_den">1</property>
  <property name="meta.media.frame_rate_num">30</property>
  <property name="meta.media.frame_rate_den">1</property>
  <property name="meta.media.colorspace">709</property>
  <property name="meta.media.color_trc">1</property>
  <property name="meta.media.has_b_frames">2</property>
  <property name="meta.media.width">1920</property>
  <property name="meta.media.height">1080</property>
  <property name="meta.media.color_range">mpeg</property>
  <property name="meta.media.top_field_first">0</property>
  <property name="meta.media.progressive">1</property>
  <property name="set.test_audio">1</property>
  <property name="set.test_image">0</property>
 </producer>
 <playlist id="playlist6">
  <entry producer="producer20" in="00:00:00.000" out="00:03:27.800">
   <property name="kdenlive:id">7</property>
  </entry>
  <entry producer="producer20" in="00:03:27.840" out="00:03:32.160">
   <property name="kdenlive:id">7</property>
  </entry>
  <entry producer="producer20" in="00:03:34.720" out="00:03:52.800">
   <property name="kdenlive:id">7</property>
  </entry>
  <entry producer="producer21" in="00:00:25.800" out="00:00:36.920">
   <property name="kdenlive:id">5</property>
  </entry>
  <entry producer="producer20" in="00:04:19.840" out="00:04:33.480">
   <property name="kdenlive:id">7</property>
  </entry>
  <entry producer="producer22" in="00:01:03.920" out="00:01:07.920">
   <property name="kdenlive:id">7</property>
  </entry>
  <entry producer="producer20" in="00:04:58.040" out="00:05:09.680">
   <property name="kdenlive:id">7</property>
  </entry>
  <entry producer="producer20" in="00:05:22.640" out="00:05:37.880">
   <property name="kdenlive:id">7</property>
  </entry>
  <entry producer="producer20" in="00:05:38.800" out="00:05:41.640">
   <property name="kdenlive:id">7</property>
  </entry>
  <entry producer="producer20" in="00:05:43.160" out="00:05:57.760">
   <property name="kdenlive:id">7</property>
  </entry>
  <entry producer="producer23" in="00:00:01.480" out="00:00:05.520">
   <property name="kdenlive:id">11</property>
  </entry>
  <entry producer="producer23" in="00:00:06.200" out="00:00:17.800">
   <property name="kdenlive:id">11</property>
  </entry>
  <entry producer="producer23" in="00:00:21.800" out="00:00:28.080">
   <property name="kdenlive:id">11</property>
  </entry>
  <entry producer="producer23" in="00:01:29.800" out="00:01:35.040">
   <property name="kdenlive:id">11</property>
  </entry>
  <entry producer="producer23" in="00:01:36.440" out="00:01:38.120">
   <property name="kdenlive:id">11</property>
  </entry>
  <entry producer="producer23" in="00:01:38.560" out="00:01:44.320">
   <property name="kdenlive:id">11</property>
  </entry>
  <entry producer="producer24" in="00:00:09.480" out="00:00:10.520">
   <property name="kdenlive:id">11</property>
  </entry>
  <entry producer="producer23" in="00:01:56.200" out="00:02:04.920">
   <property name="kdenlive:id">11</property>
  </entry>
  <entry producer="producer25" in="00:00:10.480" out="00:00:11.280">
   <property name="kdenlive:id">11</property>
  </entry>
  <entry producer="producer26" in="00:00:00.000" out="00:00:54.640">
   <property name="kdenlive:id">8</property>
  </entry>
  <entry producer="producer26" in="00:00:56.520" out="00:01:00.000">
   <property name="kdenlive:id">8</property>
  </entry>
  <entry producer="producer26" in="00:01:02.800" out="00:01:53.120">
   <property name="kdenlive:id">8</property>
  </entry>
  <entry producer="producer26" in="00:01:54.080" out="00:02:07.600">
   <property name="kdenlive:id">8</property>
  </entry>
  <entry producer="producer26" in="00:02:09.640" out="00:02:16.560">
   <property name="kdenlive:id">8</property>
  </entry>
  <entry producer="producer26" in="00:02:17.840" out="00:02:23.920">
   <property name="kdenlive:id">8</property>
  </entry>
  <entry producer="producer26" in="00:02:24.880" out="00:02:59.600">
   <property name="kdenlive:id">8</property>
  </entry>
  <entry producer="producer26" in="00:03:01.480" out="00:03:33.600">
   <property name="kdenlive:id">8</property>
  </entry>
  <entry producer="producer26" in="00:04:46.920" out="00:04:47.760">
   <property name="kdenlive:id">8</property>
  </entry>
  <entry producer="producer26" in="00:04:47.800" out="00:04:48.360">
   <property name="kdenlive:id">8</property>
  </entry>
  <entry producer="producer26" in="00:04:48.400" out="00:05:05.960">
   <property name="kdenlive:id">8</property>
  </entry>
  <entry producer="producer26" in="00:04:47.800" out="00:04:48.360">
   <property name="kdenlive:id">8</property>
  </entry>
  <entry producer="producer26" in="00:05:07.240" out="00:05:08.800">
   <property name="kdenlive:id">8</property>
  </entry>
  <entry producer="producer27" in="00:00:00.640" out="00:00:04.000">
   <property name="kdenlive:id">10</property>
  </entry>
 </playlist>
 <playlist id="playlist7"/>
 <tractor id="tractor3" in="00:00:00.000" out="00:09:35.960">
  <property name="kdenlive:trackheight">64</property>
  <property name="kdenlive:timeline_active">1</property>
  <property name="kdenlive:collapsed">28</property>
  <property name="kdenlive:thumbs_format"/>
  <property name="kdenlive:audio_rec"/>
  <track hide="audio" producer="playlist6"/>
  <track hide="audio" producer="playlist7"/>
 </tractor>
 <tractor id="tractor4" in="00:00:00.000" out="00:29:36.000">
  <track producer="black_track"/>
  <track producer="tractor0"/>
  <track producer="tractor1"/>
  <track producer="tractor2"/>
  <track producer="tractor3"/>
  <transition id="transition0">
   <property name="a_track">0</property>
   <property name="b_track">1</property>
   <property name="mlt_service">mix</property>
   <property name="kdenlive_id">mix</property>
   <property name="internal_added">237</property>
   <property name="always_active">1</property>
   <property name="accepts_blanks">1</property>
   <property name="sum">1</property>
  </transition>
  <transition id="transition1">
   <property name="a_track">0</property>
   <property name="b_track">2</property>
   <property name="mlt_service">mix</property>
   <property name="kdenlive_id">mix</property>
   <property name="internal_added">237</property>
   <property name="always_active">1</property>
   <property name="accepts_blanks">1</property>
   <property name="sum">1</property>
  </transition>
  <transition id="transition2">
   <property name="a_track">0</property>
   <property name="b_track">3</property>
   <property name="version">0.1</property>
   <property name="mlt_service">frei0r.cairoblend</property>
   <property name="always_active">1</property>
   <property name="internal_added">237</property>
  </transition>
  <transition id="transition3">
   <property name="a_track">0</property>
   <property name="b_track">4</property>
   <property name="version">0.1</property>
   <property name="mlt_service">frei0r.cairoblend</property>
   <property name="always_active">1</property>
   <property name="internal_added">237</property>
  </transition>
  <filter id="filter6">
   <property name="window">75</property>
   <property name="max_gain">20dB</property>
   <property name="mlt_service">volume</property>
   <property name="internal_added">237</property>
   <property name="disable">1</property>
  </filter>
  <filter id="filter7">
   <property name="channel">-1</property>
   <property name="mlt_service">panner</property>
   <property name="internal_added">237</property>
   <property name="start">0.5</property>
   <property name="disable">1</property>
  </filter>
 </tractor>
</mlt>
